<?xml version="1.0" standalone="yes"?>

<svg version="1.1" viewBox="0.0 0.0 1024.0 768.0" fill="none" stroke="none" stroke-linecap="square" stroke-miterlimit="10" xmlns="http://www.w3.org/2000/svg" xmlns:xlink="http://www.w3.org/1999/xlink"><clipPath id="p.0"><path d="m0 0l1024.0 0l0 768.0l-1024.0 0l0 -768.0z" clip-rule="nonzero"></path></clipPath><g clip-path="url(#p.0)"><path fill="#000000" fill-opacity="0.0" d="m0 0l1024.0 0l0 768.0l-1024.0 0z" fill-rule="nonzero"></path><path fill="#000000" fill-opacity="0.0" d="m40.428577 134.73695l159.27559 0l0 76.97638l-159.27559 0z" fill-rule="nonzero"></path><path stroke="#000000" stroke-width="2.0" stroke-linejoin="round" stroke-linecap="butt" d="m40.428577 134.73695l159.27559 0l0 76.97638l-159.27559 0z" fill-rule="nonzero"></path><path fill="#000000" d="m90.54293 175.39764l1.4375 -0.125q0.09375 0.859375 0.46875 1.421875q0.375 0.546875 1.15625 0.890625q0.78125 0.328125 1.75 0.328125q0.875 0 1.53125 -0.25q0.671875 -0.265625 0.984375 -0.703125q0.328125 -0.453125 0.328125 -0.984375q0 -0.546875 -0.3125 -0.9375q-0.3125 -0.40625 -1.03125 -0.6875q-0.453125 -0.171875 -2.03125 -0.546875q-1.578125 -0.390625 -2.21875 -0.71875q-0.8125 -0.4375 -1.21875 -1.0625q-0.40625 -0.640625 -0.40625 -1.4375q0 -0.859375 0.484375 -1.609375q0.5 -0.765625 1.4375 -1.15625q0.953125 -0.390625 2.109375 -0.390625q1.28125 0 2.25 0.421875q0.96875 0.40625 1.484375 1.203125q0.53125 0.796875 0.578125 1.796875l-1.453125 0.109375q-0.125 -1.078125 -0.796875 -1.625q-0.671875 -0.5625 -2.0 -0.5625q-1.375 0 -2.0 0.5q-0.625 0.5 -0.625 1.21875q0 0.609375 0.4375 1.015625q0.4375 0.390625 2.28125 0.8125q1.859375 0.421875 2.546875 0.734375q1.0 0.453125 1.46875 1.171875q0.484375 0.703125 0.484375 1.625q0 0.90625 -0.53125 1.71875q-0.515625 0.8125 -1.5 1.265625q-0.984375 0.453125 -2.203125 0.453125q-1.5625 0 -2.609375 -0.453125q-1.046875 -0.46875 -1.65625 -1.375q-0.59375 -0.90625 -0.625 -2.0625zm14.078125 2.421875l0.203125 1.25q-0.59375 0.125 -1.0625 0.125q-0.765625 0 -1.1875 -0.234375q-0.421875 -0.25 -0.59375 -0.640625q-0.171875 -0.40625 -0.171875 -1.671875l0 -4.765625l-1.03125 0l0 -1.09375l1.03125 0l0 -2.0625l1.40625 -0.84375l0 2.90625l1.40625 0l0 1.09375l-1.40625 0l0 4.84375q0 0.609375 0.0625 0.78125q0.078125 0.171875 0.25 0.28125q0.171875 0.09375 0.484375 0.09375q0.234375 0 0.609375 -0.0625zm6.7890625 0.234375q-0.78125 0.671875 -1.5 0.953125q-0.71875 0.265625 -1.546875 0.265625q-1.375 0 -2.109375 -0.671875q-0.734375 -0.671875 -0.734375 -1.703125q0 -0.609375 0.28125 -1.109375q0.28125 -0.515625 0.71875 -0.8125q0.453125 -0.3125 1.015625 -0.46875q0.421875 -0.109375 1.25 -0.203125q1.703125 -0.203125 2.515625 -0.484375q0 -0.296875 0 -0.375q0 -0.859375 -0.390625 -1.203125q-0.546875 -0.484375 -1.609375 -0.484375q-0.984375 0 -1.46875 0.359375q-0.46875 0.34375 -0.6875 1.21875l-1.375 -0.1875q0.1875 -0.875 0.609375 -1.421875q0.4375 -0.546875 1.25 -0.828125q0.8125 -0.296875 1.875 -0.296875q1.0625 0 1.71875 0.25q0.671875 0.25 0.984375 0.625q0.3125 0.375 0.4375 0.953125q0.078125 0.359375 0.078125 1.296875l0 1.875q0 1.96875 0.078125 2.484375q0.09375 0.515625 0.359375 1.0l-1.46875 0q-0.21875 -0.4375 -0.28125 -1.03125zm-0.109375 -3.140625q-0.765625 0.3125 -2.296875 0.53125q-0.875 0.125 -1.234375 0.28125q-0.359375 0.15625 -0.5625 0.46875q-0.1875 0.296875 -0.1875 0.65625q0 0.5625 0.421875 0.9375q0.4375 0.375 1.25 0.375q0.8125 0 1.4375 -0.34375q0.640625 -0.359375 0.9375 -0.984375q0.234375 -0.46875 0.234375 -1.40625l0 -0.515625zm3.5859375 4.171875l0 -8.296875l1.265625 0l0 1.25q0.484375 -0.875 0.890625 -1.15625q0.40625 -0.28125 0.90625 -0.28125q0.703125 0 1.4375 0.453125l-0.484375 1.296875q-0.515625 -0.296875 -1.03125 -0.296875q-0.453125 0 -0.828125 0.28125q-0.359375 0.265625 -0.515625 0.765625q-0.234375 0.75 -0.234375 1.640625l0 4.34375l-1.40625 0zm5.078125 0.6875l1.375 0.203125q0.078125 0.640625 0.46875 0.921875q0.53125 0.390625 1.4375 0.390625q0.96875 0 1.5 -0.390625q0.53125 -0.390625 0.71875 -1.09375q0.109375 -0.421875 0.109375 -1.8125q-0.921875 1.09375 -2.296875 1.09375q-1.71875 0 -2.65625 -1.234375q-0.9375 -1.234375 -0.9375 -2.96875q0 -1.1875 0.421875 -2.1875q0.4375 -1.0 1.25 -1.546875q0.828125 -0.546875 1.921875 -0.546875q1.46875 0 2.421875 1.1875l0 -1.0l1.296875 0l0 7.171875q0 1.9375 -0.390625 2.75q-0.390625 0.8125 -1.25 1.28125q-0.859375 0.46875 -2.109375 0.46875q-1.484375 0 -2.40625 -0.671875q-0.90625 -0.671875 -0.875 -2.015625zm1.171875 -4.984375q0 1.625 0.640625 2.375q0.65625 0.75 1.625 0.75q0.96875 0 1.625 -0.734375q0.65625 -0.75 0.65625 -2.34375q0 -1.53125 -0.671875 -2.296875q-0.671875 -0.78125 -1.625 -0.78125q-0.9375 0 -1.59375 0.765625q-0.65625 0.765625 -0.65625 2.265625zm13.398445 3.265625q-0.78125 0.671875 -1.5 0.953125q-0.71875 0.265625 -1.546875 0.265625q-1.375 0 -2.109375 -0.671875q-0.734375 -0.671875 -0.734375 -1.703125q0 -0.609375 0.28125 -1.109375q0.28125 -0.515625 0.71875 -0.8125q0.453125 -0.3125 1.015625 -0.46875q0.421875 -0.109375 1.25 -0.203125q1.703125 -0.203125 2.515625 -0.484375q0 -0.296875 0 -0.375q0 -0.859375 -0.390625 -1.203125q-0.546875 -0.484375 -1.609375 -0.484375q-0.984375 0 -1.46875 0.359375q-0.46875 0.34375 -0.6875 1.21875l-1.375 -0.1875q0.1875 -0.875 0.609375 -1.421875q0.4375 -0.546875 1.25 -0.828125q0.8125 -0.296875 1.875 -0.296875q1.0625 0 1.71875 0.25q0.671875 0.25 0.984375 0.625q0.3125 0.375 0.4375 0.953125q0.078125 0.359375 0.078125 1.296875l0 1.875q0 1.96875 0.078125 2.484375q0.09375 0.515625 0.359375 1.0l-1.46875 0q-0.21875 -0.4375 -0.28125 -1.03125zm-0.109375 -3.140625q-0.765625 0.3125 -2.296875 0.53125q-0.875 0.125 -1.234375 0.28125q-0.359375 0.15625 -0.5625 0.46875q-0.1875 0.296875 -0.1875 0.65625q0 0.5625 0.421875 0.9375q0.4375 0.375 1.25 0.375q0.8125 0 1.4375 -0.34375q0.640625 -0.359375 0.9375 -0.984375q0.234375 -0.46875 0.234375 -1.40625l0 -0.515625zm6.6640625 2.90625l0.203125 1.25q-0.59375 0.125 -1.0625 0.125q-0.765625 0 -1.1875 -0.234375q-0.421875 -0.25 -0.59375 -0.640625q-0.171875 -0.40625 -0.171875 -1.671875l0 -4.765625l-1.03125 0l0 -1.09375l1.03125 0l0 -2.0625l1.40625 -0.84375l0 2.90625l1.40625 0l0 1.09375l-1.40625 0l0 4.84375q0 0.609375 0.0625 0.78125q0.078125 0.171875 0.25 0.28125q0.171875 0.09375 0.484375 0.09375q0.234375 0 0.609375 -0.0625zm7.0546875 -1.40625l1.453125 0.171875q-0.34375 1.28125 -1.28125 1.984375q-0.921875 0.703125 -2.359375 0.703125q-1.828125 0 -2.890625 -1.125q-1.0625 -1.125 -1.0625 -3.140625q0 -2.09375 1.078125 -3.25q1.078125 -1.15625 2.796875 -1.15625q1.65625 0 2.703125 1.140625q1.0625 1.125 1.0625 3.171875q0 0.125 0 0.375l-6.1875 0q0.078125 1.375 0.765625 2.109375q0.703125 0.71875 1.734375 0.71875q0.78125 0 1.328125 -0.40625q0.546875 -0.40625 0.859375 -1.296875zm-4.609375 -2.28125l4.625 0q-0.09375 -1.046875 -0.53125 -1.5625q-0.671875 -0.8125 -1.734375 -0.8125q-0.96875 0 -1.640625 0.65625q-0.65625 0.640625 -0.71875 1.71875z" fill-rule="nonzero"></path><path fill="#000000" fill-opacity="0.0" d="m318.9267 398.43634l159.2756 0l0 76.97638l-159.2756 0z" fill-rule="nonzero"></path><path stroke="#000000" stroke-width="2.0" stroke-linejoin="round" stroke-linecap="butt" d="m318.9267 398.43634l159.2756 0l0 76.97638l-159.2756 0z" fill-rule="nonzero"></path><path fill="#000000" d="m379.35745 442.78452l0 -11.453125l4.328125 0q1.140625 0 1.734375 0.109375q0.84375 0.140625 1.40625 0.53125q0.578125 0.390625 0.921875 1.109375q0.359375 0.703125 0.359375 1.5625q0 1.453125 -0.9375 2.46875q-0.921875 1.015625 -3.359375 1.015625l-2.9375 0l0 4.65625l-1.515625 0zm1.515625 -6.015625l2.96875 0q1.46875 0 2.078125 -0.546875q0.625 -0.546875 0.625 -1.53125q0 -0.71875 -0.375 -1.234375q-0.359375 -0.515625 -0.953125 -0.671875q-0.375 -0.109375 -1.40625 -0.109375l-2.9375 0l0 4.09375zm8.96875 6.015625l0 -8.296875l1.265625 0l0 1.25q0.484375 -0.875 0.890625 -1.15625q0.40625 -0.28125 0.90625 -0.28125q0.703125 0 1.4375 0.453125l-0.484375 1.296875q-0.515625 -0.296875 -1.03125 -0.296875q-0.453125 0 -0.828125 0.28125q-0.359375 0.265625 -0.515625 0.765625q-0.234375 0.75 -0.234375 1.640625l0 4.34375l-1.40625 0zm5.34375 -9.84375l0 -1.609375l1.40625 0l0 1.609375l-1.40625 0zm0 9.84375l0 -8.296875l1.40625 0l0 8.296875l-1.40625 0zm2.9921875 -2.484375l1.390625 -0.21875q0.109375 0.84375 0.640625 1.296875q0.546875 0.4375 1.5 0.4375q0.96875 0 1.4375 -0.390625q0.46875 -0.40625 0.46875 -0.9375q0 -0.46875 -0.40625 -0.75q-0.296875 -0.1875 -1.4375 -0.46875q-1.546875 -0.390625 -2.15625 -0.671875q-0.59375 -0.296875 -0.90625 -0.796875q-0.296875 -0.5 -0.296875 -1.109375q0 -0.5625 0.25 -1.03125q0.25 -0.46875 0.6875 -0.78125q0.328125 -0.25 0.890625 -0.40625q0.578125 -0.171875 1.21875 -0.171875q0.984375 0 1.71875 0.28125q0.734375 0.28125 1.078125 0.765625q0.359375 0.46875 0.5 1.28125l-1.375 0.1875q-0.09375 -0.640625 -0.546875 -1.0q-0.453125 -0.359375 -1.265625 -0.359375q-0.96875 0 -1.390625 0.328125q-0.40625 0.3125 -0.40625 0.734375q0 0.28125 0.171875 0.5q0.171875 0.21875 0.53125 0.375q0.21875 0.078125 1.25 0.359375q1.484375 0.390625 2.078125 0.65625q0.59375 0.25 0.921875 0.734375q0.34375 0.484375 0.34375 1.203125q0 0.703125 -0.421875 1.328125q-0.40625 0.609375 -1.1875 0.953125q-0.765625 0.34375 -1.734375 0.34375q-1.625 0 -2.46875 -0.671875q-0.84375 -0.671875 -1.078125 -2.0zm8.5625 2.484375l0 -8.296875l1.25 0l0 1.15625q0.390625 -0.609375 1.03125 -0.96875q0.65625 -0.375 1.484375 -0.375q0.921875 0 1.515625 0.390625q0.59375 0.375 0.828125 1.0625q0.984375 -1.453125 2.5625 -1.453125q1.234375 0 1.890625 0.6875q0.671875 0.671875 0.671875 2.09375l0 5.703125l-1.390625 0l0 -5.234375q0 -0.84375 -0.140625 -1.203125q-0.140625 -0.375 -0.5 -0.59375q-0.359375 -0.234375 -0.84375 -0.234375q-0.875 0 -1.453125 0.578125q-0.578125 0.578125 -0.578125 1.859375l0 4.828125l-1.40625 0l0 -5.390625q0 -0.9375 -0.34375 -1.40625q-0.34375 -0.46875 -1.125 -0.46875q-0.59375 0 -1.09375 0.3125q-0.5 0.3125 -0.734375 0.921875q-0.21875 0.59375 -0.21875 1.71875l0 4.3125l-1.40625 0z" fill-rule="nonzero"></path><path fill="#cfe2f3" d="m-6.824147E-6 588.0077l212.92853 0l30.000595 30.00055l0 149.99945l-242.92912 0z" fill-rule="nonzero"></path><path stroke="#000000" stroke-width="1.0" stroke-linejoin="round" stroke-linecap="butt" d="m-6.824147E-6 588.0077l212.92853 0l30.000595 30.00055l0 149.99945l-242.92912 0z" fill-rule="nonzero"></path><path fill="#000000" d="m73.87204 750.5527l1.6875 -0.140625q0.125 1.015625 0.5625 1.671875q0.4375 0.65625 1.359375 1.0625q0.9375 0.40625 2.09375 0.40625q1.03125 0 1.8125 -0.3125q0.796875 -0.3125 1.1875 -0.84375q0.390625 -0.53125 0.390625 -1.15625q0 -0.640625 -0.375 -1.109375q-0.375 -0.484375 -1.234375 -0.8125q-0.546875 -0.21875 -2.421875 -0.65625q-1.875 -0.453125 -2.625 -0.859375q-0.96875 -0.515625 -1.453125 -1.265625q-0.46875 -0.75 -0.46875 -1.6875q0 -1.03125 0.578125 -1.921875q0.59375 -0.90625 1.703125 -1.359375q1.125 -0.46875 2.5 -0.46875q1.515625 0 2.671875 0.484375q1.15625 0.484375 1.765625 1.4375q0.625 0.9375 0.671875 2.140625l-1.71875 0.125q-0.140625 -1.28125 -0.953125 -1.9375q-0.796875 -0.671875 -2.359375 -0.671875q-1.625 0 -2.375 0.609375q-0.75 0.59375 -0.75 1.4375q0 0.734375 0.53125 1.203125q0.515625 0.46875 2.703125 0.96875q2.203125 0.5 3.015625 0.875q1.1875 0.546875 1.75 1.390625q0.578125 0.828125 0.578125 1.921875q0 1.09375 -0.625 2.0625q-0.625 0.953125 -1.796875 1.484375q-1.15625 0.53125 -2.609375 0.53125q-1.84375 0 -3.09375 -0.53125q-1.25 -0.546875 -1.96875 -1.625q-0.703125 -1.078125 -0.734375 -2.453125zm19.271698 3.15625q-0.9375 0.796875 -1.796875 1.125q-0.859375 0.3125 -1.84375 0.3125q-1.609375 0 -2.484375 -0.78125q-0.875 -0.796875 -0.875 -2.03125q0 -0.734375 0.328125 -1.328125q0.328125 -0.59375 0.859375 -0.953125q0.53125 -0.359375 1.203125 -0.546875q0.5 -0.140625 1.484375 -0.25q2.03125 -0.25 2.984375 -0.578125q0 -0.34375 0 -0.4375q0 -1.015625 -0.46875 -1.4375q-0.640625 -0.5625 -1.90625 -0.5625q-1.171875 0 -1.734375 0.40625q-0.5625 0.40625 -0.828125 1.46875l-1.640625 -0.234375q0.234375 -1.046875 0.734375 -1.6875q0.515625 -0.640625 1.46875 -0.984375q0.96875 -0.359375 2.25 -0.359375q1.265625 0 2.046875 0.296875q0.78125 0.296875 1.15625 0.75q0.375 0.453125 0.515625 1.140625q0.09375 0.421875 0.09375 1.53125l0 2.234375q0 2.328125 0.09375 2.953125q0.109375 0.609375 0.4375 1.171875l-1.75 0q-0.265625 -0.515625 -0.328125 -1.21875zm-0.140625 -3.71875q-0.90625 0.359375 -2.734375 0.625q-1.03125 0.140625 -1.453125 0.328125q-0.421875 0.1875 -0.65625 0.546875q-0.234375 0.359375 -0.234375 0.796875q0 0.671875 0.5 1.125q0.515625 0.4375 1.484375 0.4375q0.96875 0 1.71875 -0.421875q0.75 -0.4375 1.109375 -1.15625q0.265625 -0.578125 0.265625 -1.671875l0 -0.609375zm4.047592 4.9375l0 -13.59375l1.671875 0l0 13.59375l-1.671875 0zm4.144821 0l0 -13.59375l1.671875 0l0 13.59375l-1.671875 0zm10.926071 -3.171875l1.71875 0.21875q-0.40625 1.5 -1.515625 2.34375q-1.09375 0.828125 -2.8125 0.828125q-2.15625 0 -3.421875 -1.328125q-1.265625 -1.328125 -1.265625 -3.734375q0 -2.484375 1.265625 -3.859375q1.28125 -1.375 3.328125 -1.375q1.984375 0 3.234375 1.34375q1.25 1.34375 1.25 3.796875q0 0.140625 -0.015625 0.4375l-7.34375 0q0.09375 1.625 0.921875 2.484375q0.828125 0.859375 2.0625 0.859375q0.90625 0 1.546875 -0.46875q0.65625 -0.484375 1.046875 -1.546875zm-5.484375 -2.703125l5.5 0q-0.109375 -1.234375 -0.625 -1.859375q-0.796875 -0.96875 -2.078125 -0.96875q-1.140625 0 -1.9375 0.78125q-0.78125 0.765625 -0.859375 2.046875zm17.965271 5.875l0 -12.0l-4.46875 0l0 -1.59375l10.76564 0l0 1.59375l-4.5000153 0l0 12.0l-1.796875 0zm8.239731 0l0 -13.59375l1.8125 0l0 13.59375l-1.8125 0zm5.183319 0l0 -13.59375l1.8125 0l0 13.59375l-1.8125 0zm4.9176636 0l0 -13.59375l6.03125 0q1.8125 0 2.75 0.359375q0.953125 0.359375 1.515625 1.296875q0.5625 0.921875 0.5625 2.046875q0 1.453125 -0.9375 2.453125q-0.921875 0.984375 -2.890625 1.25q0.71875 0.34375 1.09375 0.671875q0.78125 0.734375 1.484375 1.8125l2.375 3.703125l-2.265625 0l-1.796875 -2.828125q-0.796875 -1.21875 -1.3125 -1.875q-0.5 -0.65625 -0.90625 -0.90625q-0.40625 -0.265625 -0.8125 -0.359375q-0.3125 -0.078125 -1.015625 -0.078125l-2.078125 0l0 6.046875l-1.796875 0zm1.796875 -7.59375l3.859375 0q1.234375 0 1.921875 -0.25q0.703125 -0.265625 1.0625 -0.828125q0.375 -0.5625 0.375 -1.21875q0 -0.96875 -0.703125 -1.578125q-0.703125 -0.625 -2.21875 -0.625l-4.296875 0l0 4.5z" fill-rule="nonzero"></path><path fill="#000000" fill-opacity="0.0" d="m388.81085 134.742l159.27557 0l0 76.97638l-159.27557 0z" fill-rule="nonzero"></path><path stroke="#000000" stroke-width="2.0" stroke-linejoin="round" stroke-linecap="butt" d="m388.81085 134.742l159.27557 0l0 76.97638l-159.27557 0z" fill-rule="nonzero"></path><path fill="#000000" d="m416.33145 179.0902l0 -11.453125l4.328125 0q1.140625 0 1.734375 0.109375q0.84375 0.140625 1.40625 0.53125q0.578125 0.390625 0.921875 1.109375q0.359375 0.703125 0.359375 1.5625q0 1.453125 -0.9375 2.46875q-0.921875 1.015625 -3.359375 1.015625l-2.9375 0l0 4.65625l-1.515625 0zm1.515625 -6.015625l2.96875 0q1.46875 0 2.078125 -0.546875q0.625 -0.546875 0.625 -1.53125q0 -0.71875 -0.375 -1.234375q-0.359375 -0.515625 -0.953125 -0.671875q-0.375 -0.109375 -1.40625 -0.109375l-2.9375 0l0 4.09375zm14.390625 4.984375q-0.78125 0.671875 -1.5 0.953125q-0.71875 0.265625 -1.546875 0.265625q-1.375 0 -2.109375 -0.671875q-0.734375 -0.671875 -0.734375 -1.703125q0 -0.609375 0.28125 -1.109375q0.28125 -0.515625 0.71875 -0.8125q0.453125 -0.3125 1.015625 -0.46875q0.421875 -0.109375 1.25 -0.203125q1.703125 -0.203125 2.515625 -0.484375q0 -0.296875 0 -0.375q0 -0.859375 -0.390625 -1.203125q-0.546875 -0.484375 -1.609375 -0.484375q-0.984375 0 -1.46875 0.359375q-0.46875 0.34375 -0.6875 1.21875l-1.375 -0.1875q0.1875 -0.875 0.609375 -1.421875q0.4375 -0.546875 1.25 -0.828125q0.8125 -0.296875 1.875 -0.296875q1.0625 0 1.71875 0.25q0.671875 0.25 0.984375 0.625q0.3125 0.375 0.4375 0.953125q0.078125 0.359375 0.078125 1.296875l0 1.875q0 1.96875 0.078125 2.484375q0.09375 0.515625 0.359375 1.0l-1.46875 0q-0.21875 -0.4375 -0.28125 -1.03125zm-0.109375 -3.140625q-0.765625 0.3125 -2.296875 0.53125q-0.875 0.125 -1.234375 0.28125q-0.359375 0.15625 -0.5625 0.46875q-0.1875 0.296875 -0.1875 0.65625q0 0.5625 0.421875 0.9375q0.4375 0.375 1.25 0.375q0.8125 0 1.4375 -0.34375q0.640625 -0.359375 0.9375 -0.984375q0.234375 -0.46875 0.234375 -1.40625l0 -0.515625zm3.0390625 1.6875l1.390625 -0.21875q0.109375 0.84375 0.640625 1.296875q0.546875 0.4375 1.5 0.4375q0.96875 0 1.4375 -0.390625q0.46875 -0.40625 0.46875 -0.9375q0 -0.46875 -0.40625 -0.75q-0.296875 -0.1875 -1.4375 -0.46875q-1.546875 -0.390625 -2.15625 -0.671875q-0.59375 -0.296875 -0.90625 -0.796875q-0.296875 -0.5 -0.296875 -1.109375q0 -0.5625 0.25 -1.03125q0.25 -0.46875 0.6875 -0.78125q0.328125 -0.25 0.890625 -0.40625q0.578125 -0.171875 1.21875 -0.171875q0.984375 0 1.71875 0.28125q0.734375 0.28125 1.078125 0.765625q0.359375 0.46875 0.5 1.28125l-1.375 0.1875q-0.09375 -0.640625 -0.546875 -1.0q-0.453125 -0.359375 -1.265625 -0.359375q-0.96875 0 -1.390625 0.328125q-0.40625 0.3125 -0.40625 0.734375q0 0.28125 0.171875 0.5q0.171875 0.21875 0.53125 0.375q0.21875 0.078125 1.25 0.359375q1.484375 0.390625 2.078125 0.65625q0.59375 0.25 0.921875 0.734375q0.34375 0.484375 0.34375 1.203125q0 0.703125 -0.421875 1.328125q-0.40625 0.609375 -1.1875 0.953125q-0.765625 0.34375 -1.734375 0.34375q-1.625 0 -2.46875 -0.671875q-0.84375 -0.671875 -1.078125 -2.0zm8.0 0l1.390625 -0.21875q0.109375 0.84375 0.640625 1.296875q0.546875 0.4375 1.5 0.4375q0.96875 0 1.4375 -0.390625q0.46875 -0.40625 0.46875 -0.9375q0 -0.46875 -0.40625 -0.75q-0.296875 -0.1875 -1.4375 -0.46875q-1.546875 -0.390625 -2.15625 -0.671875q-0.59375 -0.296875 -0.90625 -0.796875q-0.296875 -0.5 -0.296875 -1.109375q0 -0.5625 0.25 -1.03125q0.25 -0.46875 0.6875 -0.78125q0.328125 -0.25 0.890625 -0.40625q0.578125 -0.171875 1.21875 -0.171875q0.984375 0 1.71875 0.28125q0.734375 0.28125 1.078125 0.765625q0.359375 0.46875 0.5 1.28125l-1.375 0.1875q-0.09375 -0.640625 -0.546875 -1.0q-0.453125 -0.359375 -1.265625 -0.359375q-0.96875 0 -1.390625 0.328125q-0.40625 0.3125 -0.40625 0.734375q0 0.28125 0.171875 0.5q0.171875 0.21875 0.53125 0.375q0.21875 0.078125 1.25 0.359375q1.484375 0.390625 2.078125 0.65625q0.59375 0.25 0.921875 0.734375q0.34375 0.484375 0.34375 1.203125q0 0.703125 -0.421875 1.328125q-0.40625 0.609375 -1.1875 0.953125q-0.765625 0.34375 -1.734375 0.34375q-1.625 0 -2.46875 -0.671875q-0.84375 -0.671875 -1.078125 -2.0zm14.234375 -0.1875l1.453125 0.171875q-0.34375 1.28125 -1.28125 1.984375q-0.921875 0.703125 -2.359375 0.703125q-1.828125 0 -2.890625 -1.125q-1.0625 -1.125 -1.0625 -3.140625q0 -2.09375 1.078125 -3.25q1.078125 -1.15625 2.796875 -1.15625q1.65625 0 2.703125 1.140625q1.0625 1.125 1.0625 3.171875q0 0.125 0 0.375l-6.1875 0q0.078125 1.375 0.765625 2.109375q0.703125 0.71875 1.734375 0.71875q0.78125 0 1.328125 -0.40625q0.546875 -0.40625 0.859375 -1.296875zm-4.609375 -2.28125l4.625 0q-0.09375 -1.046875 -0.53125 -1.5625q-0.671875 -0.8125 -1.734375 -0.8125q-0.96875 0 -1.640625 0.65625q-0.65625 0.640625 -0.71875 1.71875zm7.8203125 4.953125l0 -8.296875l1.265625 0l0 1.25q0.484375 -0.875 0.890625 -1.15625q0.40625 -0.28125 0.90625 -0.28125q0.703125 0 1.4375 0.453125l-0.484375 1.296875q-0.515625 -0.296875 -1.03125 -0.296875q-0.453125 0 -0.828125 0.28125q-0.359375 0.265625 -0.515625 0.765625q-0.234375 0.75 -0.234375 1.640625l0 4.34375l-1.40625 0zm11.015625 -2.671875l1.453125 0.171875q-0.34375 1.28125 -1.28125 1.984375q-0.921875 0.703125 -2.359375 0.703125q-1.828125 0 -2.890625 -1.125q-1.0625 -1.125 -1.0625 -3.140625q0 -2.09375 1.078125 -3.25q1.078125 -1.15625 2.796875 -1.15625q1.65625 0 2.703125 1.140625q1.0625 1.125 1.0625 3.171875q0 0.125 0 0.375l-6.1875 0q0.078125 1.375 0.765625 2.109375q0.703125 0.71875 1.734375 0.71875q0.78125 0 1.328125 -0.40625q0.546875 -0.40625 0.859375 -1.296875zm-4.609375 -2.28125l4.625 0q-0.09375 -1.046875 -0.53125 -1.5625q-0.671875 -0.8125 -1.734375 -0.8125q-0.96875 0 -1.640625 0.65625q-0.65625 0.640625 -0.71875 1.71875zm7.8046875 4.953125l0 -11.453125l1.40625 0l0 11.453125l-1.40625 0zm3.5546875 0l0 -11.453125l1.40625 0l0 11.453125l-1.40625 0zm9.2578125 -2.671875l1.453125 0.171875q-0.34375 1.28125 -1.28125 1.984375q-0.921875 0.703125 -2.359375 0.703125q-1.828125 0 -2.890625 -1.125q-1.0625 -1.125 -1.0625 -3.140625q0 -2.09375 1.078125 -3.25q1.078125 -1.15625 2.796875 -1.15625q1.65625 0 2.703125 1.140625q1.0625 1.125 1.0625 3.171875q0 0.125 0 0.375l-6.1875 0q0.078125 1.375 0.765625 2.109375q0.703125 0.71875 1.734375 0.71875q0.78125 0 1.328125 -0.40625q0.546875 -0.40625 0.859375 -1.296875zm-4.609375 -2.28125l4.625 0q-0.09375 -1.046875 -0.53125 -1.5625q-0.671875 -0.8125 -1.734375 -0.8125q-0.96875 0 -1.640625 0.65625q-0.65625 0.640625 -0.71875 1.71875zm20.625 0.9375l1.515625 0.375q-0.46875 1.875 -1.71875 2.859375q-1.234375 0.984375 -3.015625 0.984375q-1.859375 0 -3.015625 -0.75q-1.15625 -0.765625 -1.765625 -2.1875q-0.609375 -1.4375 -0.609375 -3.078125q0 -1.796875 0.6875 -3.125q0.6875 -1.328125 1.9375 -2.015625q1.265625 -0.703125 2.78125 -0.703125q1.71875 0 2.890625 0.875q1.171875 0.875 1.640625 2.46875l-1.5 0.34375q-0.390625 -1.25 -1.15625 -1.8125q-0.75 -0.578125 -1.90625 -0.578125q-1.3125 0 -2.203125 0.640625q-0.890625 0.625 -1.25 1.703125q-0.359375 1.0625 -0.359375 2.1875q0 1.46875 0.421875 2.5625q0.4375 1.078125 1.328125 1.625q0.90625 0.53125 1.953125 0.53125q1.265625 0 2.140625 -0.734375q0.890625 -0.734375 1.203125 -2.171875zm3.4140625 4.015625l0 -11.453125l5.0781555 0q1.53125 0 2.328125 0.3125q0.796875 0.296875 1.265625 1.078125q0.484375 0.78125 0.484375 1.734375q0 1.21875 -0.796875 2.0625q-0.78125 0.828125 -2.4375 1.046875q0.609375 0.296875 0.921875 0.578125q0.65625 0.609375 1.25 1.515625l2.0 3.125l-1.90625 0l-1.515625 -2.390625q-0.671875 -1.03125 -1.109375 -1.578125q-0.421875 -0.546875 -0.7656555 -0.765625q-0.328125 -0.21875 -0.6875 -0.296875q-0.25 -0.0625 -0.84375 -0.0625l-1.75 0l0 5.09375l-1.515625 0zm1.515625 -6.40625l3.25 0q1.0469055 0 1.6250305 -0.203125q0.59375 -0.21875 0.890625 -0.6875q0.3125 -0.484375 0.3125 -1.03125q0 -0.8125 -0.59375 -1.328125q-0.59375 -0.53125 -1.859375 -0.53125l-3.6250305 0l0 3.78125zm10.273468 6.40625l0 -11.453125l1.515625 0l0 11.453125l-1.515625 0z" fill-rule="nonzero"></path><path fill="#000000" fill-opacity="0.0" d="m29.115694 391.70453l181.92126 0l0 90.4252l-181.92126 0z" fill-rule="nonzero"></path><path stroke="#000000" stroke-width="2.0" stroke-linejoin="round" stroke-linecap="butt" d="m29.115694 391.70453l181.92126 0l0 90.4252l-181.92126 0z" fill-rule="nonzero"></path><path fill="#000000" d="m97.232574 439.08963l1.4375 -0.125q0.09375 0.859375 0.46875 1.421875q0.375 0.546875 1.15625 0.890625q0.78125 0.328125 1.75 0.328125q0.875 0 1.53125 -0.25q0.671875 -0.265625 0.984375 -0.703125q0.328125 -0.453125 0.328125 -0.984375q0 -0.546875 -0.3125 -0.9375q-0.3125 -0.40625 -1.03125 -0.6875q-0.453125 -0.171875 -2.03125 -0.546875q-1.578125 -0.390625 -2.21875 -0.71875q-0.8125 -0.4375 -1.21875 -1.0625q-0.40625 -0.640625 -0.40625 -1.4375q0 -0.859375 0.484375 -1.609375q0.5 -0.765625 1.4375 -1.15625q0.953125 -0.390625 2.109375 -0.390625q1.28125 0 2.25 0.421875q0.96875 0.40625 1.484375 1.203125q0.53125 0.796875 0.578125 1.796875l-1.453125 0.109375q-0.125 -1.078125 -0.796875 -1.625q-0.671875 -0.5625 -2.0 -0.5625q-1.375 0 -2.0 0.5q-0.625 0.5 -0.625 1.21875q0 0.609375 0.4375 1.015625q0.4375 0.390625 2.28125 0.8125q1.859375 0.421875 2.546875 0.734375q1.0 0.453125 1.46875 1.171875q0.484375 0.703125 0.484375 1.625q0 0.90625 -0.53125 1.71875q-0.515625 0.8125 -1.5 1.265625q-0.984375 0.453125 -2.203125 0.453125q-1.5625 0 -2.609375 -0.453125q-1.046875 -0.46875 -1.65625 -1.375q-0.59375 -0.90625 -0.625 -2.0625zm12.546875 3.6875l-2.546875 -8.296875l1.453125 0l1.328125 4.78125l0.484375 1.78125q0.03125 -0.125 0.4375 -1.703125l1.3125 -4.859375l1.453125 0l1.234375 4.8125l0.421875 1.578125l0.46875 -1.59375l1.421875 -4.796875l1.375 0l-2.59375 8.296875l-1.46875 0l-1.3125 -4.96875l-0.328125 -1.421875l-1.671875 6.390625l-1.46875 0zm10.0234375 -9.84375l0 -1.609375l1.40625 0l0 1.609375l-1.40625 0zm0 9.84375l0 -8.296875l1.40625 0l0 8.296875l-1.40625 0zm6.6171875 -1.265625l0.203125 1.25q-0.59375 0.125 -1.0625 0.125q-0.765625 0 -1.1875 -0.234375q-0.421875 -0.25 -0.59375 -0.640625q-0.171875 -0.40625 -0.171875 -1.671875l0 -4.765625l-1.03125 0l0 -1.09375l1.03125 0l0 -2.0625l1.40625 -0.84375l0 2.90625l1.40625 0l0 1.09375l-1.40625 0l0 4.84375q0 0.609375 0.0625 0.78125q0.078125 0.171875 0.25 0.28125q0.171875 0.09375 0.484375 0.09375q0.234375 0 0.609375 -0.0625zm6.7890625 -1.78125l1.390625 0.1875q-0.234375 1.421875 -1.171875 2.234375q-0.921875 0.8125 -2.28125 0.8125q-1.703125 0 -2.75 -1.109375q-1.03125 -1.125 -1.03125 -3.203125q0 -1.34375 0.4375 -2.34375q0.453125 -1.015625 1.359375 -1.515625q0.921875 -0.5 1.984375 -0.5q1.359375 0 2.21875 0.6875q0.859375 0.671875 1.09375 1.9375l-1.359375 0.203125q-0.203125 -0.828125 -0.703125 -1.25q-0.484375 -0.421875 -1.1875 -0.421875q-1.0625 0 -1.734375 0.765625q-0.65625 0.75 -0.65625 2.40625q0 1.671875 0.640625 2.4375q0.640625 0.75 1.671875 0.75q0.828125 0 1.375 -0.5q0.5625 -0.515625 0.703125 -1.578125zm2.59375 3.046875l0 -11.453125l1.40625 0l0 4.109375q0.984375 -1.140625 2.484375 -1.140625q0.921875 0 1.59375 0.359375q0.6875 0.359375 0.96875 1.0q0.296875 0.640625 0.296875 1.859375l0 5.265625l-1.40625 0l0 -5.265625q0 -1.046875 -0.453125 -1.53125q-0.453125 -0.484375 -1.296875 -0.484375q-0.625 0 -1.171875 0.328125q-0.546875 0.328125 -0.78125 0.890625q-0.234375 0.546875 -0.234375 1.515625l0 4.546875l-1.40625 0z" fill-rule="nonzero"></path><path fill="#000000" fill-opacity="0.0" d="m120.06637 211.71333l0 179.99998" fill-rule="nonzero"></path><path stroke="#000000" stroke-width="1.0" stroke-linejoin="round" stroke-linecap="butt" d="m120.06637 211.71333l0 179.99998" fill-rule="nonzero"></path><path fill="#000000" fill-opacity="0.0" d="m120.076324 482.12973l1.3858261 105.88974" fill-rule="nonzero"></path><path stroke="#000000" stroke-width="1.0" stroke-linejoin="round" stroke-linecap="butt" d="m120.076324 482.12973l1.3858261 105.88974" fill-rule="nonzero"></path><path fill="#000000" fill-opacity="0.0" d="m211.03696 436.91714l107.87402 0" fill-rule="nonzero"></path><path stroke="#000000" stroke-width="1.0" stroke-linejoin="round" stroke-linecap="butt" d="m211.03696 436.91714l107.87402 0" fill-rule="nonzero"></path><path fill="#000000" fill-opacity="0.0" d="m199.70416 173.22514l189.10236 0" fill-rule="nonzero"></path><path stroke="#000000" stroke-width="1.0" stroke-linejoin="round" stroke-linecap="butt" d="m199.70416 173.22514l189.10236 0" fill-rule="nonzero"></path><path fill="#000000" fill-opacity="0.0" d="m548.0864 173.2302l316.62994 0" fill-rule="nonzero"></path><path stroke="#000000" stroke-width="1.0" stroke-linejoin="round" stroke-linecap="butt" d="m548.0864 173.2302l316.62994 0" fill-rule="nonzero"></path><path fill="#000000" fill-opacity="0.0" d="m864.7126 134.73695l159.27557 0l0 76.97638l-159.27557 0z" fill-rule="nonzero"></path><path stroke="#000000" stroke-width="2.0" stroke-linejoin="round" stroke-linecap="butt" d="m864.7126 134.73695l159.27557 0l0 76.97638l-159.27557 0z" fill-rule="nonzero"></path><path fill="#000000" d="m913.29956 179.08514l-4.4375 -11.453125l1.640625 0l2.96875 8.3125q0.359375 1.0 0.609375 1.875q0.265625 -0.9375 0.609375 -1.875l3.09375 -8.3125l1.546875 0l-4.484375 11.453125l-1.546875 0zm7.390625 0l0 -11.453125l4.328125 0q1.140625 0 1.734375 0.109375q0.84375 0.140625 1.40625 0.53125q0.578125 0.390625 0.921875 1.109375q0.359375 0.703125 0.359375 1.5625q0 1.453125 -0.9375 2.46875q-0.921875 1.015625 -3.359375 1.015625l-2.9375 0l0 4.65625l-1.515625 0zm1.515625 -6.015625l2.96875 0q1.46875 0 2.078125 -0.546875q0.625 -0.546875 0.625 -1.53125q0 -0.71875 -0.375 -1.234375q-0.359375 -0.515625 -0.953125 -0.671875q-0.375 -0.109375 -1.40625 -0.109375l-2.9375 0l0 4.09375zm8.640625 2.328125l1.4375 -0.125q0.09375 0.859375 0.46875 1.421875q0.375 0.546875 1.15625 0.890625q0.78125 0.328125 1.75 0.328125q0.875 0 1.53125 -0.25q0.671875 -0.265625 0.984375 -0.703125q0.328125 -0.453125 0.328125 -0.984375q0 -0.546875 -0.3125 -0.9375q-0.3125 -0.40625 -1.03125 -0.6875q-0.453125 -0.171875 -2.03125 -0.546875q-1.578125 -0.390625 -2.21875 -0.71875q-0.8125 -0.4375 -1.21875 -1.0625q-0.40625 -0.640625 -0.40625 -1.4375q0 -0.859375 0.484375 -1.609375q0.5 -0.765625 1.4375 -1.15625q0.953125 -0.390625 2.109375 -0.390625q1.28125 0 2.25 0.421875q0.96875 0.40625 1.484375 1.203125q0.53125 0.796875 0.578125 1.796875l-1.453125 0.109375q-0.125 -1.078125 -0.796875 -1.625q-0.671875 -0.5625 -2.0 -0.5625q-1.375 0 -2.0 0.5q-0.625 0.5 -0.625 1.21875q0 0.609375 0.4375 1.015625q0.4375 0.390625 2.28125 0.8125q1.859375 0.421875 2.546875 0.734375q1.0 0.453125 1.46875 1.171875q0.484375 0.703125 0.484375 1.625q0 0.90625 -0.53125 1.71875q-0.515625 0.8125 -1.5 1.265625q-0.984375 0.453125 -2.203125 0.453125q-1.5625 0 -2.609375 -0.453125q-1.046875 -0.46875 -1.65625 -1.375q-0.59375 -0.90625 -0.625 -2.0625zm15.1796875 -1.890625q0 -2.859375 1.53125 -4.46875q1.53125 -1.609375 3.953125 -1.609375q1.578125 0 2.84375 0.765625q1.28125 0.75 1.953125 2.109375q0.671875 1.34375 0.671875 3.0625q0 1.75 -0.703125 3.125q-0.703125 1.375 -2.0 2.09375q-1.28125 0.703125 -2.78125 0.703125q-1.609375 0 -2.890625 -0.78125q-1.265625 -0.796875 -1.921875 -2.140625q-0.65625 -1.359375 -0.65625 -2.859375zm1.5625 0.015625q0 2.078125 1.109375 3.265625q1.109375 1.1875 2.796875 1.1875q1.703125 0 2.8125 -1.203125q1.109375 -1.203125 1.109375 -3.40625q0 -1.40625 -0.484375 -2.4375q-0.46875 -1.046875 -1.375 -1.625q-0.90625 -0.578125 -2.046875 -0.578125q-1.609375 0 -2.765625 1.109375q-1.15625 1.109375 -1.15625 3.6875zm14.6171875 5.5625l-4.4375 -11.453125l1.640625 0l2.96875 8.3125q0.359375 1.0 0.609375 1.875q0.265625 -0.9375 0.609375 -1.875l3.09375 -8.3125l1.546875 0l-4.484375 11.453125l-1.546875 0zm7.4375 0l0 -11.453125l1.515625 0l0 4.703125l5.953125 0l0 -4.703125l1.515625 0l0 11.453125l-1.515625 0l0 -5.40625l-5.953125 0l0 5.40625l-1.515625 0z" fill-rule="nonzero"></path><path fill="#000000" fill-opacity="0.0" d="m722.10223 93.861206l0 0c-11.82196 0 -21.405518 38.33429 -21.405518 85.62204c0 47.28775 9.583557 85.62204 21.405518 85.62204l-345.6614 0c-11.82196 0 -21.405518 -38.33429 -21.405518 -85.62204c0 -47.28775 9.583557 -85.62204 21.405518 -85.62204z" fill-rule="nonzero"></path><path fill="#000000" fill-opacity="0.0" d="m722.10223 93.861206l0 0c11.82196 0 21.405518 38.33429 21.405518 85.62204c0 47.28775 -9.583557 85.62204 -21.405518 85.62204l0 0c-11.82196 0 -21.405518 -38.33429 -21.405518 -85.62204c0 -47.28775 9.583557 -85.62204 21.405518 -85.62204z" fill-rule="nonzero"></path><path fill="#000000" fill-opacity="0.0" d="m722.10223 265.1053l0 0c-11.82196 0 -21.405518 -38.33429 -21.405518 -85.62204c0 -47.28775 9.583557 -85.62204 21.405518 -85.62204l0 0c11.82196 0 21.405518 38.33429 21.405518 85.62204c0 47.28775 -9.583557 85.62204 -21.405518 85.62204l-345.6614 0c-11.82196 0 -21.405518 -38.33429 -21.405518 -85.62204c0 -47.28775 9.583557 -85.62204 21.405518 -85.62204l345.6614 0" fill-rule="nonzero"></path><path fill="#ffffff" fill-opacity="0.4" d="m722.10223 93.861206l0 0c11.82196 0 21.405518 38.33429 21.405518 85.62204c0 47.28775 -9.583557 85.62204 -21.405518 85.62204l0 0c-11.82196 0 -21.405518 -38.33429 -21.405518 -85.62204c0 -47.28775 9.583557 -85.62204 21.405518 -85.62204z" fill-rule="nonzero"></path><path stroke="#ff0000" stroke-width="2.0" stroke-linejoin="round" stroke-linecap="butt" d="m722.10223 265.1053l0 0c-11.82196 0 -21.405518 -38.33429 -21.405518 -85.62204c0 -47.28775 9.583557 -85.62204 21.405518 -85.62204l0 0c11.82196 0 21.405518 38.33429 21.405518 85.62204c0 47.28775 -9.583557 85.62204 -21.405518 85.62204l-345.6614 0c-11.82196 0 -21.405518 -38.33429 -21.405518 -85.62204c0 -47.28775 9.583557 -85.62204 21.405518 -85.62204l345.6614 0" fill-rule="nonzero"></path><path fill="#cfe2f3" d="m608.65564 159.35698l0 0c-0.9822998 -9.703278 2.242859 -19.308945 8.306885 -24.740936c6.064026 -5.432007 13.903442 -5.7377014 20.191711 -0.7873535l0 0c2.227478 -5.6418915 6.3045044 -9.537231 10.997742 -10.507744c4.6932373 -0.97052 9.451477 1.0977707 12.83551 5.5792465l0 0c1.897522 -5.1152954 5.623413 -8.552124 9.855469 -9.090912c4.2319946 -0.5387955 8.371338 1.8967056 10.949036 6.442253l0 0c3.4281616 -5.422203 8.882507 -7.7051773 14.002869 -5.8610687c5.1203613 1.8441162 8.987061 7.4840927 9.927002 14.479485l0 0c4.2001343 1.5399323 7.6987305 5.4546356 9.591919 10.732681c1.8931274 5.2780457 1.9951782 11.401657 0.2796631 16.788712l0 0c4.1359253 7.2353973 5.1033936 16.876465 2.5414429 25.325348c-2.5619507 8.448883 -8.268494 14.436218 -14.989929 15.727631c-0.047424316 7.9295807 -3.2827759 15.205658 -8.459045 19.023727c-5.1763306 3.8180695 -11.485291 3.5819244 -16.495117 -0.6174164c-2.1339722 9.49704 -8.140259 16.484863 -15.42395 17.944489c-7.2837524 1.4596252 -14.539124 -2.8706207 -18.631653 -11.119919c-5.0164795 4.066101 -11.035889 5.2374115 -16.700317 3.24971c-5.6644287 -1.9876862 -10.496765 -6.96698 -13.406921 -13.814606l0 0c-5.1262207 0.8063202 -10.082581 -2.7636414 -12.409241 -8.938141c-2.3267212 -6.1744843 -1.5283813 -13.639114 1.9987793 -18.689194l0 0c-4.572754 -3.6176453 -6.906067 -10.796234 -5.783203 -17.792435c1.1229248 -6.9962006 5.44751 -12.22464 10.71875 -12.958893z" fill-rule="nonzero"></path><path fill="#000000" fill-opacity="0.0" d="m603.6188 190.48228l0 0c2.157898 1.7071686 4.650757 2.4815826 7.143921 2.2192535m3.265442 25.408691c1.0721436 -0.16864014 2.1230469 -0.52575684 3.1256104 -1.062149m26.980164 11.626602c-0.75408936 -1.5200195 -1.385437 -3.1442719 -1.8833008 -4.845108m35.940125 -1.9797363l0 0c0.3890381 -1.7314606 0.6411133 -3.5134888 0.75201416 -5.316391m24.201233 -13.089249c0.05041504 -8.442261 -3.5169067 -16.172073 -9.169678 -19.869278m21.618042 -21.18283c-0.9154053 2.8747559 -2.3129883 5.4248962 -4.083008 7.4505005m-5.7877197 -34.97264l0 0c0.15600586 1.1608887 0.22821045 2.3392334 0.21557617 3.5186768m-24.14502 -12.136742l0 0c-0.8551636 1.3525696 -1.5596924 2.8640518 -2.0916748 4.4873734m-18.713013 -1.8392944l0 0c-0.4557495 1.2285156 -0.79608154 2.5285187 -1.0131226 3.8700256m-22.820496 1.0585632l0 0c1.3306274 1.0474854 2.5615845 2.3082428 3.6658936 3.754593m-32.164124 21.773834l0 0c0.13537598 1.3373566 0.3493042 2.6582336 0.6397705 3.9502563" fill-rule="nonzero"></path><path stroke="#000000" stroke-width="1.0" stroke-linejoin="round" stroke-linecap="butt" d="m608.65564 159.35698l0 0c-0.9822998 -9.703278 2.242859 -19.308945 8.306885 -24.740936c6.064026 -5.432007 13.903442 -5.7377014 20.191711 -0.7873535l0 0c2.227478 -5.6418915 6.3045044 -9.537231 10.997742 -10.507744c4.6932373 -0.97052 9.451477 1.0977707 12.83551 5.5792465l0 0c1.897522 -5.1152954 5.623413 -8.552124 9.855469 -9.090912c4.2319946 -0.5387955 8.371338 1.8967056 10.949036 6.442253l0 0c3.4281616 -5.422203 8.882507 -7.7051773 14.002869 -5.8610687c5.1203613 1.8441162 8.987061 7.4840927 9.927002 14.479485l0 0c4.2001343 1.5399323 7.6987305 5.4546356 9.591919 10.732681c1.8931274 5.2780457 1.9951782 11.401657 0.2796631 16.788712l0 0c4.1359253 7.2353973 5.1033936 16.876465 2.5414429 25.325348c-2.5619507 8.448883 -8.268494 14.436218 -14.989929 15.727631c-0.047424316 7.9295807 -3.2827759 15.205658 -8.459045 19.023727c-5.1763306 3.8180695 -11.485291 3.5819244 -16.495117 -0.6174164c-2.1339722 9.49704 -8.140259 16.484863 -15.42395 17.944489c-7.2837524 1.4596252 -14.539124 -2.8706207 -18.631653 -11.119919c-5.0164795 4.066101 -11.035889 5.2374115 -16.700317 3.24971c-5.6644287 -1.9876862 -10.496765 -6.96698 -13.406921 -13.814606l0 0c-5.1262207 0.8063202 -10.082581 -2.7636414 -12.409241 -8.938141c-2.3267212 -6.1744843 -1.5283813 -13.639114 1.9987793 -18.689194l0 0c-4.572754 -3.6176453 -6.906067 -10.796234 -5.783203 -17.792435c1.1229248 -6.9962006 5.44751 -12.22464 10.71875 -12.958893z" fill-rule="nonzero"></path><path stroke="#000000" stroke-width="1.0" stroke-linejoin="round" stroke-linecap="butt" d="m603.6188 190.48228l0 0c2.157898 1.7071686 4.650757 2.4815826 7.143921 2.2192535m3.265442 25.408691c1.0721436 -0.16864014 2.1230469 -0.52575684 3.1256104 -1.062149m26.980164 11.626602c-0.75408936 -1.5200195 -1.385437 -3.1442719 -1.8833008 -4.845108m35.940125 -1.9797363l0 0c0.3890381 -1.7314606 0.6411133 -3.5134888 0.75201416 -5.316391m24.201233 -13.089249c0.05041504 -8.442261 -3.5169067 -16.172073 -9.169678 -19.869278m21.618042 -21.18283c-0.9154053 2.8747559 -2.3129883 5.4248962 -4.083008 7.4505005m-5.7877197 -34.97264l0 0c0.15600586 1.1608887 0.22821045 2.3392334 0.21557617 3.5186768m-24.14502 -12.136742l0 0c-0.8551636 1.3525696 -1.5596924 2.8640518 -2.0916748 4.4873734m-18.713013 -1.8392944l0 0c-0.4557495 1.2285156 -0.79608154 2.5285187 -1.0131226 3.8700256m-22.820496 1.0585632l0 0c1.3306274 1.0474854 2.5615845 2.3082428 3.6658936 3.754593m-32.164124 21.773834l0 0c0.13537598 1.3373566 0.3493042 2.6582336 0.6397705 3.9502563" fill-rule="nonzero"></path><path fill="#000000" d="m624.94836 182.56172l0 -11.453125l1.515625 0l0 11.453125l-1.515625 0zm4.0078125 0l0 -8.296875l1.265625 0l0 1.171875q0.90625 -1.359375 2.640625 -1.359375q0.75 0 1.375 0.265625q0.625 0.265625 0.9375 0.703125q0.3125 0.4375 0.4375 1.046875q0.078125 0.390625 0.078125 1.359375l0 5.109375l-1.40625 0l0 -5.046875q0 -0.859375 -0.171875 -1.28125q-0.15625 -0.4375 -0.578125 -0.6875q-0.40625 -0.25 -0.96875 -0.25q-0.90625 0 -1.5625 0.578125q-0.640625 0.5625 -0.640625 2.15625l0 4.53125l-1.40625 0zm11.9609375 -1.265625l0.203125 1.25q-0.59375 0.125 -1.0625 0.125q-0.765625 0 -1.1875 -0.234375q-0.421875 -0.25 -0.59375 -0.640625q-0.171875 -0.40625 -0.171875 -1.671875l0 -4.765625l-1.03125 0l0 -1.09375l1.03125 0l0 -2.0625l1.40625 -0.84375l0 2.90625l1.40625 0l0 1.09375l-1.40625 0l0 4.84375q0 0.609375 0.0625 0.78125q0.078125 0.171875 0.25 0.28125q0.171875 0.09375 0.484375 0.09375q0.234375 0 0.609375 -0.0625zm7.0546875 -1.40625l1.453125 0.171875q-0.34375 1.28125 -1.28125 1.984375q-0.921875 0.703125 -2.359375 0.703125q-1.828125 0 -2.890625 -1.125q-1.0625 -1.125 -1.0625 -3.140625q0 -2.09375 1.078125 -3.25q1.078125 -1.15625 2.796875 -1.15625q1.65625 0 2.703125 1.140625q1.0625 1.125 1.0625 3.171875q0 0.125 0 0.375l-6.1875 0q0.078125 1.375 0.765625 2.109375q0.703125 0.71875 1.734375 0.71875q0.78125 0 1.328125 -0.40625q0.546875 -0.40625 0.859375 -1.296875zm-4.609375 -2.28125l4.625 0q-0.09375 -1.046875 -0.53125 -1.5625q-0.671875 -0.8125 -1.734375 -0.8125q-0.96875 0 -1.640625 0.65625q-0.65625 0.640625 -0.71875 1.71875zm7.8203125 4.953125l0 -8.296875l1.265625 0l0 1.25q0.484375 -0.875 0.890625 -1.15625q0.40625 -0.28125 0.90625 -0.28125q0.703125 0 1.4375 0.453125l-0.484375 1.296875q-0.515625 -0.296875 -1.03125 -0.296875q-0.453125 0 -0.828125 0.28125q-0.359375 0.265625 -0.515625 0.765625q-0.234375 0.75 -0.234375 1.640625l0 4.34375l-1.40625 0zm5.34375 0l0 -8.296875l1.265625 0l0 1.171875q0.90625 -1.359375 2.640625 -1.359375q0.75 0 1.375 0.265625q0.625 0.265625 0.9375 0.703125q0.3125 0.4375 0.4375 1.046875q0.078125 0.390625 0.078125 1.359375l0 5.109375l-1.40625 0l0 -5.046875q0 -0.859375 -0.171875 -1.28125q-0.15625 -0.4375 -0.578125 -0.6875q-0.40625 -0.25 -0.96875 -0.25q-0.90625 0 -1.5625 0.578125q-0.640625 0.5625 -0.640625 2.15625l0 4.53125l-1.40625 0zm14.5703125 -2.671875l1.453125 0.171875q-0.34375 1.28125 -1.28125 1.984375q-0.921875 0.703125 -2.359375 0.703125q-1.828125 0 -2.890625 -1.125q-1.0625 -1.125 -1.0625 -3.140625q0 -2.09375 1.078125 -3.25q1.078125 -1.15625 2.796875 -1.15625q1.65625 0 2.703125 1.140625q1.0625 1.125 1.0625 3.171875q0 0.125 0 0.375l-6.1875 0q0.078125 1.375 0.765625 2.109375q0.703125 0.71875 1.734375 0.71875q0.78125 0 1.328125 -0.40625q0.546875 -0.40625 0.859375 -1.296875zm-4.609375 -2.28125l4.625 0q-0.09375 -1.046875 -0.53125 -1.5625q-0.671875 -0.8125 -1.734375 -0.8125q-0.96875 0 -1.640625 0.65625q-0.65625 0.640625 -0.71875 1.71875zm10.8984375 3.6875l0.203125 1.25q-0.59375 0.125 -1.0625 0.125q-0.765625 0 -1.1875 -0.234375q-0.421875 -0.25 -0.59375 -0.640625q-0.171875 -0.40625 -0.171875 -1.671875l0 -4.765625l-1.03125 0l0 -1.09375l1.03125 0l0 -2.0625l1.40625 -0.84375l0 2.90625l1.40625 0l0 1.09375l-1.40625 0l0 4.84375q0 0.609375 0.0625 0.78125q0.078125 0.171875 0.25 0.28125q0.171875 0.09375 0.484375 0.09375q0.234375 0 0.609375 -0.0625z" fill-rule="nonzero"></path><path fill="#000000" fill-opacity="0.0" d="m469.61948 4.8293965E-5l159.2756 0l0 90.4252l-159.2756 0z" fill-rule="nonzero"></path><path fill="#ff0000" d="m503.88562 26.920046l0 -11.999999l-4.46875 0l0 -1.59375l10.765625 0l0 1.59375l-4.5 0l0 11.999999l-1.796875 0zm14.177246 0l0 -1.453125q-1.140625 1.671875 -3.125 1.671875q-0.859375 0 -1.625 -0.328125q-0.75 -0.34375 -1.125 -0.84375q-0.35940552 -0.5 -0.5156555 -1.234375q-0.09375 -0.5 -0.09375 -1.5625l0 -6.109375l1.6719055 0l0 5.46875q0 1.3125 0.09375 1.765625q0.15625 0.65625 0.671875 1.03125q0.515625 0.375 1.265625 0.375q0.75 0 1.40625 -0.375q0.65625 -0.390625 0.921875 -1.046875q0.28125 -0.671875 0.28125 -1.9375l0 -5.28125l1.671875 0l0 9.859375l-1.5 0zm3.9225464 0l0 -9.859375l1.5 0l0 1.40625q1.09375 -1.625 3.140625 -1.625q0.890625 0 1.640625 0.328125q0.75 0.3125 1.109375 0.84375q0.375 0.515625 0.53125 1.21875q0.09375 0.46875 0.09375 1.625l0 6.0625l-1.671875 0l0 -6.0q0 -1.015625 -0.203125 -1.515625q-0.1875 -0.515625 -0.6875 -0.8125q-0.5 -0.296875 -1.171875 -0.296875q-1.0625 0 -1.84375 0.671875q-0.765625 0.671875 -0.765625 2.578125l0 5.375l-1.671875 0zm10.375732 0l0 -9.859375l1.5 0l0 1.40625q1.09375 -1.625 3.140625 -1.625q0.890625 0 1.640625 0.328125q0.75 0.3125 1.109375 0.84375q0.375 0.515625 0.53125 1.21875q0.09375 0.46875 0.09375 1.625l0 6.0625l-1.671875 0l0 -6.0q0 -1.015625 -0.203125 -1.515625q-0.1875 -0.515625 -0.6875 -0.8125q-0.5 -0.296875 -1.171875 -0.296875q-1.0625 0 -1.84375 0.671875q-0.765625 0.671875 -0.765625 2.578125l0 5.375l-1.671875 0zm17.125732 -3.171875l1.71875 0.21875q-0.40625 1.5 -1.515625 2.34375q-1.09375 0.828125 -2.8125 0.828125q-2.15625 0 -3.421875 -1.328125q-1.265625 -1.328125 -1.265625 -3.734375q0 -2.484375 1.265625 -3.859375q1.28125 -1.375 3.328125 -1.375q1.984375 0 3.234375 1.34375q1.25 1.34375 1.25 3.796875q0 0.140625 -0.015625 0.4375l-7.34375 0q0.09375 1.625 0.921875 2.484375q0.828125 0.859375 2.0625 0.859375q0.90625 0 1.546875 -0.46875q0.65625 -0.484375 1.046875 -1.546875zm-5.484375 -2.703125l5.5 0q-0.109375 -1.234375 -0.625 -1.859375q-0.796875 -0.96875 -2.078125 -0.96875q-1.140625 0 -1.9375 0.78125q-0.78125 0.765625 -0.859375 2.046875zm9.078857 5.875l0 -13.593749l1.671875 0l0 13.593749l-1.671875 0zm13.46875 0l-5.28125 -13.593749l1.953125 0l3.53125 9.874999q0.4375 1.1875 0.71875 2.21875q0.3125 -1.109375 0.734375 -2.21875l3.671875 -9.874999l1.84375 0l-5.328125 13.593749l-1.84375 0zm8.5529175 0l0 -13.593749l5.125 0q1.359375 0 2.078125 0.125q1.0 0.171875 1.671875 0.640625q0.671875 0.46875 1.078125 1.3125q0.421875 0.84374905 0.421875 1.843749q0 1.734375 -1.109375 2.9375q-1.09375 1.203125 -3.984375 1.203125l-3.484375 0l0 5.53125l-1.796875 0zm1.796875 -7.140625l3.515625 0q1.75 0 2.46875 -0.640625q0.734375 -0.65625 0.734375 -1.828125q0 -0.859375 -0.4375 -1.468749q-0.421875 -0.609375 -1.125 -0.796875q-0.453125 -0.125 -1.671875 -0.125l-3.484375 0l0 4.859374zm10.6311035 7.140625l0 -13.593749l1.84375 0l7.140625 10.671874l0 -10.671874l1.718689 0l0 13.593749l-1.843689 0l-7.140625 -10.6875l0 10.6875l-1.71875 0z" fill-rule="nonzero"></path><path fill="#000000" fill-opacity="0.0" d="m1.3756657 585.1432l242.92912 0l0 76.97638l-242.92912 0z" fill-rule="nonzero"></path><path fill="#000000" d="m75.12204 619.71136l0 -10.734375l3.703125 0q1.25 0 1.90625 0.15625q0.921875 0.203125 1.578125 0.765625q0.84375 0.71875 1.265625 1.84375q0.421875 1.109375 0.421875 2.546875q0 1.21875 -0.28125 2.171875q-0.28125 0.9375 -0.734375 1.5625q-0.453125 0.609375 -0.984375 0.96875q-0.53125 0.359375 -1.28125 0.546875q-0.75 0.171875 -1.71875 0.171875l-3.875 0zm1.421875 -1.265625l2.296875 0q1.0625 0 1.65625 -0.1875q0.609375 -0.203125 0.96875 -0.5625q0.5 -0.515625 0.78125 -1.359375q0.28125 -0.859375 0.28125 -2.078125q0 -1.6875 -0.546875 -2.578125q-0.546875 -0.90625 -1.34375 -1.21875q-0.578125 -0.21875 -1.84375 -0.21875l-2.25 0l0 8.203125zm9.209274 1.265625l0 -10.734375l1.421875 0l0 4.40625l5.578125 0l0 -4.40625l1.421875 0l0 10.734375l-1.421875 0l0 -5.0625l-5.578125 0l0 5.0625l-1.421875 0zm18.19365 -3.765625l1.421875 0.359375q-0.4375 1.75 -1.609375 2.671875q-1.15625 0.921875 -2.828125 0.921875q-1.734375 0 -2.828125 -0.703125q-1.09375 -0.71875 -1.65625 -2.046875q-0.5625 -1.34375 -0.5625 -2.890625q0 -1.671875 0.640625 -2.921875q0.640625 -1.25 1.8125 -1.890625q1.1875 -0.65625 2.609375 -0.65625q1.609375 0 2.703125 0.828125q1.109375 0.8125 1.546875 2.296875l-1.40625 0.328125q-0.375 -1.171875 -1.09375 -1.703125q-0.703125 -0.53125 -1.78125 -0.53125q-1.234375 0 -2.0625 0.59375q-0.828125 0.59375 -1.171875 1.59375q-0.328125 1.0 -0.328125 2.0625q0 1.359375 0.390625 2.390625q0.40625 1.015625 1.234375 1.53125q0.84375 0.5 1.828125 0.5q1.203125 0 2.03125 -0.6875q0.828125 -0.6875 1.109375 -2.046875zm2.9280243 3.765625l0 -10.734375l4.046875 0q1.078125 0 1.640625 0.09375q0.78125 0.140625 1.3125 0.515625q0.546875 0.359375 0.875 1.03125q0.328125 0.65625 0.328125 1.46875q0 1.359375 -0.875 2.3125q-0.875 0.953125 -3.15625 0.953125l-2.75 0l0 4.359375l-1.421875 0zm1.421875 -5.625l2.78125 0q1.375 0 1.953125 -0.515625q0.578125 -0.515625 0.578125 -1.453125q0 -0.671875 -0.34375 -1.140625q-0.34375 -0.484375 -0.890625 -0.640625q-0.359375 -0.09375 -1.328125 -0.09375l-2.75 0l0 3.84375zm11.738205 3.296875l1.296875 -0.203125q0.109375 0.78125 0.609375 1.203125q0.5 0.421875 1.40625 0.421875q0.90625 0 1.34375 -0.359375q0.4375 -0.375 0.4375 -0.875q0 -0.453125 -0.390625 -0.703125q-0.265625 -0.1875 -1.34375 -0.453125q-1.453125 -0.359375 -2.015625 -0.625q-0.546875 -0.28125 -0.84375 -0.75q-0.28125 -0.46875 -0.28125 -1.046875q0 -0.515625 0.234375 -0.953125q0.234375 -0.453125 0.640625 -0.734375q0.3125 -0.234375 0.84375 -0.390625q0.53125 -0.15625 1.140625 -0.15625q0.90625 0 1.59375 0.265625q0.703125 0.265625 1.03125 0.71875q0.328125 0.4375 0.453125 1.203125l-1.28125 0.171875q-0.09375 -0.609375 -0.515625 -0.9375q-0.421875 -0.34375 -1.1875 -0.34375q-0.90625 0 -1.296875 0.3125q-0.390625 0.296875 -0.390625 0.703125q0 0.25 0.15625 0.453125q0.171875 0.21875 0.515625 0.359375q0.1875 0.0625 1.15625 0.328125q1.40625 0.375 1.953125 0.609375q0.5625 0.234375 0.875 0.703125q0.3125 0.453125 0.3125 1.125q0 0.65625 -0.390625 1.234375q-0.375 0.578125 -1.109375 0.90625q-0.71875 0.3125 -1.640625 0.3125q-1.515625 0 -2.3125 -0.625q-0.78125 -0.625 -1.0 -1.875zm12.953125 2.328125l0 -1.140625q-0.921875 1.3125 -2.46875 1.3125q-0.6875 0 -1.296875 -0.265625q-0.59375 -0.265625 -0.890625 -0.65625q-0.28125 -0.40625 -0.390625 -0.984375q-0.09375 -0.375 -0.09375 -1.21875l0 -4.828125l1.328125 0l0 4.3125q0 1.03125 0.078125 1.390625q0.125 0.53125 0.515625 0.828125q0.40625 0.296875 1.0 0.296875q0.59375 0 1.109375 -0.296875q0.53125 -0.3125 0.75 -0.828125q0.21875 -0.53125 0.21875 -1.53125l0 -4.171875l1.3125 0l0 7.78125l-1.171875 0zm4.260498 0l-1.21875 0l0 -10.734375l1.3125 0l0 3.828125q0.84375 -1.046875 2.140625 -1.046875q0.71875 0 1.359375 0.296875q0.640625 0.28125 1.046875 0.8125q0.421875 0.515625 0.65625 1.265625q0.234375 0.734375 0.234375 1.578125q0 2.0 -1.0 3.09375q-0.984375 1.078125 -2.375 1.078125q-1.375 0 -2.15625 -1.140625l0 0.96875zm-0.015625 -3.953125q0 1.40625 0.390625 2.03125q0.609375 1.015625 1.671875 1.015625q0.875 0 1.5 -0.75q0.625 -0.75 0.625 -2.234375q0 -1.53125 -0.609375 -2.25q-0.59375 -0.734375 -1.453125 -0.734375q-0.859375 0 -1.5 0.75q-0.625 0.75 -0.625 2.171875zm6.9479675 3.953125l0 -7.78125l1.1875 0l0 1.109375q0.859375 -1.28125 2.484375 -1.28125q0.703125 0 1.28125 0.25q0.59375 0.25 0.890625 0.671875q0.296875 0.40625 0.40625 0.96875q0.078125 0.359375 0.078125 1.28125l0 4.78125l-1.328125 0l0 -4.734375q0 -0.796875 -0.15625 -1.1875q-0.140625 -0.40625 -0.53125 -0.640625q-0.390625 -0.25 -0.921875 -0.25q-0.84375 0 -1.453125 0.53125q-0.609375 0.53125 -0.609375 2.03125l0 4.25l-1.328125 0zm13.479248 -2.5l1.359375 0.15625q-0.3125 1.203125 -1.1875 1.859375q-0.875 0.65625 -2.234375 0.65625q-1.703125 0 -2.703125 -1.046875q-1.0 -1.046875 -1.0 -2.953125q0 -1.953125 1.015625 -3.03125q1.015625 -1.09375 2.625 -1.09375q1.5625 0 2.546875 1.0625q0.984375 1.0625 0.984375 2.984375q0 0.125 0 0.359375l-5.8125 0q0.078125 1.28125 0.71875 1.96875q0.65625 0.671875 1.640625 0.671875q0.71875 0 1.234375 -0.375q0.515625 -0.390625 0.8125 -1.21875zm-4.328125 -2.140625l4.34375 0q-0.09375 -0.984375 -0.5 -1.46875q-0.625 -0.765625 -1.625 -0.765625q-0.921875 0 -1.546875 0.609375q-0.609375 0.609375 -0.671875 1.625zm10.041718 3.46875l0.1875 1.15625q-0.5625 0.125 -1.0 0.125q-0.71875 0 -1.125 -0.234375q-0.390625 -0.234375 -0.546875 -0.59375q-0.15625 -0.375 -0.15625 -1.5625l0 -4.46875l-0.96875 0l0 -1.03125l0.96875 0l0 -1.921875l1.3125 -0.796875l0 2.71875l1.328125 0l0 1.03125l-1.328125 0l0 4.546875q0 0.5625 0.0625 0.734375q0.078125 0.15625 0.234375 0.25q0.15625 0.09375 0.4375 0.09375q0.234375 0 0.59375 -0.046875zm5.6283264 -5.109375l0 -1.5l1.5 0l0 1.5l-1.5 0zm0 6.28125l0 -1.5l1.5 0l0 1.5l-1.5 0z" fill-rule="nonzero"></path><path fill="#000000" d="m55.088326 637.71136l-1.328125 0l0 -8.40625q-0.46875 0.453125 -1.25 0.921875q-0.765625 0.453125 -1.375 0.671875l0 -1.28125q1.09375 -0.515625 1.921875 -1.25q0.828125 -0.734375 1.171875 -1.4375l0.859375 0l0 10.78125zm3.1823578 -5.296875q0 -1.90625 0.390625 -3.0625q0.390625 -1.15625 1.15625 -1.78125q0.78125 -0.640625 1.953125 -0.640625q0.859375 0 1.515625 0.359375q0.65625 0.34375 1.078125 1.0q0.421875 0.640625 0.65625 1.59375q0.25 0.9375 0.25 2.53125q0 1.890625 -0.390625 3.0625q-0.390625 1.15625 -1.171875 1.796875q-0.765625 0.625 -1.9375 0.625q-1.546875 0 -2.4375 -1.125q-1.0625 -1.328125 -1.0625 -4.359375zm1.359375 0q0 2.640625 0.609375 3.515625q0.625 0.875 1.53125 0.875q0.90625 0 1.515625 -0.875q0.625 -0.875 0.625 -3.515625q0 -2.65625 -0.625 -3.515625q-0.609375 -0.875 -1.53125 -0.875q-0.90625 0 -1.453125 0.765625q-0.671875 0.984375 -0.671875 3.625zm7.526108 5.296875l0 -1.5l1.5 0l0 1.5l-1.5 0zm8.306351 0l-1.328125 0l0 -8.40625q-0.46875 0.453125 -1.25 0.921875q-0.765625 0.453125 -1.375 0.671875l0 -1.28125q1.09375 -0.515625 1.921875 -1.25q0.828125 -0.734375 1.171875 -1.4375l0.859375 0l0 10.78125zm3.9167328 0l0 -1.5l1.5 0l0 1.5l-1.5 0zm8.306351 0l-1.328125 0l0 -8.40625q-0.46875 0.453125 -1.25 0.921875q-0.765625 0.453125 -1.375 0.671875l0 -1.28125q1.09375 -0.515625 1.921875 -1.25q0.828125 -0.734375 1.171875 -1.4375l0.859375 0l0 10.78125zm3.9167328 0l0 -1.5l1.5 0l0 1.5l-1.5 0zm8.306351 0l-1.328125 0l0 -8.40625q-0.46875 0.453125 -1.25 0.921875q-0.765625 0.453125 -1.375 0.671875l0 -1.28125q1.09375 -0.515625 1.921875 -1.25q0.828125 -0.734375 1.171875 -1.4375l0.859375 0l0 10.78125zm3.1823578 -5.296875q0 -1.90625 0.390625 -3.0625q0.390625 -1.15625 1.15625 -1.78125q0.78125 -0.640625 1.953125 -0.640625q0.859375 0 1.515625 0.359375q0.65625 0.34375 1.078125 1.0q0.421875 0.640625 0.65625 1.59375q0.25 0.9375 0.25 2.53125q0 1.890625 -0.390625 3.0625q-0.390625 1.15625 -1.171875 1.796875q-0.765625 0.625 -1.9375 0.625q-1.546875 0 -2.4375 -1.125q-1.0625 -1.328125 -1.0625 -4.359375zm1.359375 0q0 2.640625 0.609375 3.515625q0.625 0.875 1.53125 0.875q0.90625 0 1.515625 -0.875q0.625 -0.875 0.625 -3.515625q0 -2.65625 -0.625 -3.515625q-0.609375 -0.875 -1.53125 -0.875q-0.90625 0 -1.453125 0.765625q-0.671875 0.984375 -0.671875 3.625zm6.791733 0q0 -1.90625 0.390625 -3.0625q0.390625 -1.15625 1.15625 -1.78125q0.78125 -0.640625 1.953125 -0.640625q0.859375 0 1.515625 0.359375q0.65625 0.34375 1.078125 1.0q0.421875 0.640625 0.65625 1.59375q0.25 0.9375 0.25 2.53125q0 1.890625 -0.390625 3.0625q-0.390625 1.15625 -1.171875 1.796875q-0.765625 0.625 -1.9375 0.625q-1.546875 0 -2.4375 -1.125q-1.0625 -1.328125 -1.0625 -4.359375zm1.359375 0q0 2.640625 0.609375 3.515625q0.625 0.875 1.53125 0.875q0.90625 0 1.515625 -0.875q0.625 -0.875 0.625 -3.515625q0 -2.65625 -0.625 -3.515625q-0.609375 -0.875 -1.53125 -0.875q-0.90625 0 -1.453125 0.765625q-0.671875 0.984375 -0.671875 3.625zm19.904442 5.296875l-1.328125 0l0 -8.40625q-0.46875 0.453125 -1.25 0.921875q-0.765625 0.453125 -1.375 0.671875l0 -1.28125q1.09375 -0.515625 1.921875 -1.25q0.828125 -0.734375 1.171875 -1.4375l0.859375 0l0 10.78125zm3.1823578 -5.296875q0 -1.90625 0.390625 -3.0625q0.390625 -1.15625 1.15625 -1.78125q0.78125 -0.640625 1.953125 -0.640625q0.859375 0 1.515625 0.359375q0.65625 0.34375 1.078125 1.0q0.421875 0.640625 0.65625 1.59375q0.25 0.9375 0.25 2.53125q0 1.890625 -0.390625 3.0625q-0.390625 1.15625 -1.171875 1.796875q-0.765625 0.625 -1.9375 0.625q-1.546875 0 -2.4375 -1.125q-1.0625 -1.328125 -1.0625 -4.359375zm1.359375 0q0 2.640625 0.609375 3.515625q0.625 0.875 1.53125 0.875q0.90625 0 1.515625 -0.875q0.625 -0.875 0.625 -3.515625q0 -2.65625 -0.625 -3.515625q-0.609375 -0.875 -1.53125 -0.875q-0.90625 0 -1.453125 0.765625q-0.671875 0.984375 -0.671875 3.625zm7.526108 5.296875l0 -1.5l1.5 0l0 1.5l-1.5 0zm8.306351 0l-1.328125 0l0 -8.40625q-0.46875 0.453125 -1.25 0.921875q-0.765625 0.453125 -1.375 0.671875l0 -1.28125q1.09375 -0.515625 1.921875 -1.25q0.828125 -0.734375 1.171875 -1.4375l0.859375 0l0 10.78125zm3.9167328 0l0 -1.5l1.5 0l0 1.5l-1.5 0zm8.306351 0l-1.328125 0l0 -8.40625q-0.46875 0.453125 -1.25 0.921875q-0.765625 0.453125 -1.375 0.671875l0 -1.28125q1.09375 -0.515625 1.921875 -1.25q0.828125 -0.734375 1.171875 -1.4375l0.859375 0l0 10.78125zm3.9167328 0l0 -1.5l1.5 0l0 1.5l-1.5 0zm8.306351 0l-1.328125 0l0 -8.40625q-0.46875 0.453125 -1.25 0.921875q-0.765625 0.453125 -1.375 0.671875l0 -1.28125q1.09375 -0.515625 1.921875 -1.25q0.828125 -0.734375 1.171875 -1.4375l0.859375 0l0 10.78125zm3.3854828 -2.484375l1.265625 -0.109375q0.15625 0.890625 0.609375 1.296875q0.453125 0.390625 1.171875 0.390625q0.59375 0 1.046875 -0.265625q0.46875 -0.28125 0.765625 -0.75q0.296875 -0.46875 0.484375 -1.25q0.203125 -0.796875 0.203125 -1.625q0 -0.078125 -0.015625 -0.25q-0.390625 0.625 -1.078125 1.015625q-0.6875 0.390625 -1.484375 0.390625q-1.328125 0 -2.25 -0.96875q-0.921875 -0.96875 -0.921875 -2.546875q0 -1.640625 0.953125 -2.625q0.96875 -1.0 2.421875 -1.0q1.046875 0 1.90625 0.5625q0.875 0.5625 1.328125 1.609375q0.453125 1.046875 0.453125 3.015625q0 2.0625 -0.453125 3.28125q-0.4375 1.21875 -1.328125 1.859375q-0.875 0.640625 -2.0625 0.640625q-1.265625 0 -2.0625 -0.703125q-0.796875 -0.703125 -0.953125 -1.96875zm5.390625 -4.734375q0 -1.140625 -0.609375 -1.796875q-0.59375 -0.671875 -1.453125 -0.671875q-0.875 0 -1.53125 0.71875q-0.640625 0.71875 -0.640625 1.859375q0 1.015625 0.609375 1.65625q0.625 0.640625 1.53125 0.640625q0.921875 0 1.5 -0.640625q0.59375 -0.640625 0.59375 -1.765625zm2.7604828 4.734375l1.265625 -0.109375q0.15625 0.890625 0.609375 1.296875q0.453125 0.390625 1.171875 0.390625q0.59375 0 1.046875 -0.265625q0.46875 -0.28125 0.765625 -0.75q0.296875 -0.46875 0.484375 -1.25q0.203125 -0.796875 0.203125 -1.625q0 -0.078125 -0.015625 -0.25q-0.390625 0.625 -1.078125 1.015625q-0.6875 0.390625 -1.484375 0.390625q-1.328125 0 -2.25 -0.96875q-0.921875 -0.96875 -0.921875 -2.546875q0 -1.640625 0.953125 -2.625q0.96875 -1.0 2.421875 -1.0q1.046875 0 1.90625 0.5625q0.875 0.5625 1.328125 1.609375q0.453125 1.046875 0.453125 3.015625q0 2.0625 -0.453125 3.28125q-0.4375 1.21875 -1.328125 1.859375q-0.875 0.640625 -2.0625 0.640625q-1.265625 0 -2.0625 -0.703125q-0.796875 -0.703125 -0.953125 -1.96875zm5.390625 -4.734375q0 -1.140625 -0.609375 -1.796875q-0.59375 -0.671875 -1.453125 -0.671875q-0.875 0 -1.53125 0.71875q-0.640625 0.71875 -0.640625 1.859375q0 1.015625 0.609375 1.65625q0.625 0.640625 1.53125 0.640625q0.921875 0 1.5 -0.640625q0.59375 -0.640625 0.59375 -1.765625z" fill-rule="nonzero"></path><path fill="#000000" fill-opacity="0.0" d="m244.30052 428.26337l80.81889 0l0 53.88974l-80.81889 0z" fill-rule="nonzero"></path><path fill="#000000" d="m268.7417 451.34335l-1.328125 0l0 -8.40625q-0.46875 0.453125 -1.25 0.921875q-0.765625 0.453125 -1.375 0.671875l0 -1.28125q1.09375 -0.515625 1.921875 -1.25q0.828125 -0.734375 1.171875 -1.4375l0.859375 0l0 10.78125zm3.182373 -5.296875q0 -1.90625 0.390625 -3.0625q0.390625 -1.15625 1.15625 -1.78125q0.78125 -0.640625 1.953125 -0.640625q0.859375 0 1.515625 0.359375q0.65625 0.34375 1.078125 1.0q0.421875 0.640625 0.65625 1.59375q0.25 0.9375 0.25 2.53125q0 1.890625 -0.390625 3.0625q-0.390625 1.15625 -1.171875 1.796875q-0.765625 0.625 -1.9375 0.625q-1.546875 0 -2.4375 -1.125q-1.0625 -1.328125 -1.0625 -4.359375zm1.359375 0q0 2.640625 0.609375 3.515625q0.625 0.875 1.53125 0.875q0.90625 0 1.515625 -0.875q0.625 -0.875 0.625 -3.515625q0 -2.65625 -0.625 -3.515625q-0.609375 -0.875 -1.53125 -0.875q-0.90625 0 -1.453125 0.765625q-0.671875 0.984375 -0.671875 3.625zm7.5260925 5.296875l0 -1.5l1.5 0l0 1.5l-1.5 0zm8.306366 0l-1.328125 0l0 -8.40625q-0.46875 0.453125 -1.25 0.921875q-0.765625 0.453125 -1.375 0.671875l0 -1.28125q1.09375 -0.515625 1.921875 -1.25q0.828125 -0.734375 1.171875 -1.4375l0.859375 0l0 10.78125zm3.9167175 0l0 -1.5l1.5 0l0 1.5l-1.5 0zm8.306366 0l-1.328125 0l0 -8.40625q-0.46875 0.453125 -1.25 0.921875q-0.765625 0.453125 -1.375 0.671875l0 -1.28125q1.09375 -0.515625 1.921875 -1.25q0.828125 -0.734375 1.171875 -1.4375l0.859375 0l0 10.78125zm3.9167175 0l0 -1.5l1.5 0l0 1.5l-1.5 0zm10.25946 -1.265625l0 1.265625l-7.09375 0q-0.015625 -0.46875 0.15625 -0.921875q0.265625 -0.71875 0.859375 -1.421875q0.609375 -0.703125 1.734375 -1.625q1.75 -1.4375 2.359375 -2.265625q0.625 -0.84375 0.625 -1.59375q0 -0.78125 -0.5625 -1.3125q-0.5625 -0.546875 -1.46875 -0.546875q-0.953125 0 -1.53125 0.578125q-0.5625 0.5625 -0.5625 1.578125l-1.359375 -0.140625q0.140625 -1.515625 1.046875 -2.3125q0.90625 -0.796875 2.4375 -0.796875q1.546875 0 2.4375 0.859375q0.90625 0.859375 0.90625 2.125q0 0.640625 -0.265625 1.265625q-0.25 0.625 -0.875 1.3125q-0.609375 0.6875 -2.03125 1.890625q-1.1875 0.984375 -1.53125 1.34375q-0.328125 0.359375 -0.546875 0.71875l5.265625 0z" fill-rule="nonzero"></path><path fill="#000000" fill-opacity="0.0" d="m113.77619 211.72948l85.95275 0l0 53.889755l-85.95275 0z" fill-rule="nonzero"></path><path fill="#000000" d="m128.36993 252.69923l-1.3281174 0l0 -8.40625q-0.46875 0.453125 -1.25 0.921875q-0.765625 0.453125 -1.375 0.671875l0 -1.28125q1.09375 -0.515625 1.921875 -1.25q0.828125 -0.734375 1.171875 -1.4375l0.8593674 0l0 10.78125zm3.1823578 -5.296875q0 -1.90625 0.390625 -3.0625q0.390625 -1.15625 1.15625 -1.78125q0.78125 -0.640625 1.953125 -0.640625q0.859375 0 1.515625 0.359375q0.65625 0.34375 1.078125 1.0q0.421875 0.640625 0.65625 1.59375q0.25 0.9375 0.25 2.53125q0 1.890625 -0.390625 3.0625q-0.390625 1.15625 -1.171875 1.796875q-0.765625 0.625 -1.9375 0.625q-1.546875 0 -2.4375 -1.125q-1.0625 -1.328125 -1.0625 -4.359375zm1.359375 0q0 2.640625 0.609375 3.515625q0.625 0.875 1.53125 0.875q0.90625 0 1.515625 -0.875q0.625 -0.875 0.625 -3.515625q0 -2.65625 -0.625 -3.515625q-0.609375 -0.875 -1.53125 -0.875q-0.90625 0 -1.453125 0.765625q-0.671875 0.984375 -0.671875 3.625zm7.526108 5.296875l0 -1.5l1.5 0l0 1.5l-1.5 0zm8.306351 0l-1.328125 0l0 -8.40625q-0.46875 0.453125 -1.25 0.921875q-0.765625 0.453125 -1.375 0.671875l0 -1.28125q1.09375 -0.515625 1.921875 -1.25q0.828125 -0.734375 1.171875 -1.4375l0.859375 0l0 10.78125zm3.9167328 0l0 -1.5l1.5 0l0 1.5l-1.5 0zm8.306351 0l-1.328125 0l0 -8.40625q-0.46875 0.453125 -1.25 0.921875q-0.765625 0.453125 -1.375 0.671875l0 -1.28125q1.09375 -0.515625 1.921875 -1.25q0.828125 -0.734375 1.171875 -1.4375l0.859375 0l0 10.78125zm3.9167328 0l0 -1.5l1.5 0l0 1.5l-1.5 0zm8.306351 0l-1.328125 0l0 -8.40625q-0.46875 0.453125 -1.25 0.921875q-0.765625 0.453125 -1.375 0.671875l0 -1.28125q1.09375 -0.515625 1.921875 -1.25q0.828125 -0.734375 1.171875 -1.4375l0.859375 0l0 10.78125z" fill-rule="nonzero"></path><path fill="#000000" fill-opacity="0.0" d="m40.428577 211.72948l80.81889 0l0 53.889755l-80.81889 0z" fill-rule="nonzero"></path><path fill="#000000" d="m90.034676 250.19923l1.359375 0.15625q-0.3125 1.203125 -1.1875 1.859375q-0.875 0.65625 -2.234375 0.65625q-1.703125 0 -2.703125 -1.046875q-1.0 -1.046875 -1.0 -2.953125q0 -1.953125 1.015625 -3.03125q1.015625 -1.09375 2.625 -1.09375q1.5625 0 2.546875 1.0625q0.984375 1.0625 0.984375 2.984375q0 0.125 0 0.359375l-5.8125 0q0.078125 1.28125 0.71875 1.96875q0.65625 0.671875 1.640625 0.671875q0.71875 0 1.234375 -0.375q0.515625 -0.390625 0.8125 -1.21875zm-4.328125 -2.140625l4.34375 0q-0.09375 -0.984375 -0.5 -1.46875q-0.625 -0.765625 -1.625 -0.765625q-0.921875 0 -1.546875 0.609375q-0.609375 0.609375 -0.671875 1.625zm10.041733 3.46875l0.1875 1.15625q-0.5625 0.125 -1.0 0.125q-0.71875 0 -1.125 -0.234375q-0.390625 -0.234375 -0.546875 -0.59375q-0.15625 -0.375 -0.15625 -1.5625l0 -4.46875l-0.96875 0l0 -1.03125l0.96875 0l0 -1.921875l1.3125 -0.796875l0 2.71875l1.328125 0l0 1.03125l-1.328125 0l0 4.546875q0 0.5625 0.0625 0.734375q0.078125 0.15625 0.234375 0.25q0.15625 0.09375 0.4375 0.09375q0.234375 0 0.59375 -0.046875zm1.1813507 1.171875l0 -10.734375l1.328125 0l0 3.84375q0.921875 -1.0625 2.328125 -1.0625q0.859375 0 1.5 0.34375q0.640625 0.34375 0.90625 0.9375q0.28125 0.59375 0.28125 1.75l0 4.921875l-1.328125 0l0 -4.921875q0 -1.0 -0.421875 -1.4375q-0.421875 -0.453125 -1.21875 -0.453125q-0.578125 0 -1.09375 0.296875q-0.515625 0.296875 -0.734375 0.828125q-0.21875 0.515625 -0.21875 1.4375l0 4.25l-1.328125 0zm7.791725 -5.296875q0 -1.90625 0.390625 -3.0625q0.390625 -1.15625 1.15625 -1.78125q0.78125 -0.640625 1.953125 -0.640625q0.859375 0 1.515625 0.359375q0.65625 0.34375 1.078125 1.0q0.421875 0.640625 0.65625 1.59375q0.25 0.9375 0.25 2.53125q0 1.890625 -0.390625 3.0625q-0.390625 1.15625 -1.171875 1.796875q-0.765625 0.625 -1.9375 0.625q-1.546875 0 -2.4375 -1.125q-1.0625 -1.328125 -1.0625 -4.359375zm1.359375 0q0 2.640625 0.609375 3.515625q0.625 0.875 1.53125 0.875q0.90625 0 1.515625 -0.875q0.625 -0.875 0.625 -3.515625q0 -2.65625 -0.625 -3.515625q-0.609375 -0.875 -1.53125 -0.875q-0.90625 0 -1.453125 0.765625q-0.671875 0.984375 -0.671875 3.625z" fill-rule="nonzero"></path><path fill="#000000" fill-opacity="0.0" d="m198.56616 119.343506l80.81891 0l0 53.889755l-80.81891 0z" fill-rule="nonzero"></path><path fill="#000000" d="m213.87866 139.92351l1.359375 0.15625q-0.3125 1.203125 -1.1875 1.859375q-0.875 0.65625 -2.234375 0.65625q-1.703125 0 -2.703125 -1.046875q-1.0 -1.046875 -1.0 -2.953125q0 -1.953125 1.015625 -3.03125q1.015625 -1.09375 2.625 -1.09375q1.5625 0 2.546875 1.0625q0.984375 1.0625 0.984375 2.984375q0 0.125 0 0.359375l-5.8125 0q0.078125 1.28125 0.71875 1.96875q0.65625 0.671875 1.640625 0.671875q0.71875 0 1.234375 -0.375q0.515625 -0.390625 0.8125 -1.21875zm-4.328125 -2.140625l4.34375 0q-0.09375 -0.984375 -0.5 -1.46875q-0.625 -0.765625 -1.625 -0.765625q-0.921875 0 -1.546875 0.609375q-0.609375 0.609375 -0.671875 1.625zm10.041733 3.46875l0.1875 1.15625q-0.5625 0.125 -1.0 0.125q-0.71875 0 -1.125 -0.234375q-0.390625 -0.234375 -0.546875 -0.59375q-0.15625 -0.375 -0.15625 -1.5625l0 -4.46875l-0.96875 0l0 -1.03125l0.96875 0l0 -1.921875l1.3125 -0.796875l0 2.71875l1.328125 0l0 1.03125l-1.328125 0l0 4.546875q0 0.5625 0.0625 0.734375q0.078125 0.15625 0.234375 0.25q0.15625 0.09375 0.4375 0.09375q0.234375 0 0.59375 -0.046875zm1.1813507 1.171875l0 -10.734375l1.328125 0l0 3.84375q0.921875 -1.0625 2.328125 -1.0625q0.859375 0 1.5 0.34375q0.640625 0.34375 0.90625 0.9375q0.28125 0.59375 0.28125 1.75l0 4.921875l-1.328125 0l0 -4.921875q0 -1.0 -0.421875 -1.4375q-0.421875 -0.453125 -1.21875 -0.453125q-0.578125 0 -1.09375 0.296875q-0.515625 0.296875 -0.734375 0.828125q-0.21875 0.515625 -0.21875 1.4375l0 4.25l-1.328125 0zm12.760483 0l-1.328125 0l0 -8.40625q-0.46875 0.453125 -1.25 0.921875q-0.765625 0.453125 -1.375 0.671875l0 -1.28125q1.09375 -0.515625 1.921875 -1.25q0.828125 -0.734375 1.171875 -1.4375l0.859375 0l0 10.78125z" fill-rule="nonzero"></path><path fill="#000000" fill-opacity="0.0" d="m196.00497 173.23827l129.07086 0l0 53.88977l-129.07086 0z" fill-rule="nonzero"></path><path fill="#000000" d="m210.59872 214.20802l-1.328125 0l0 -8.40625q-0.46875 0.453125 -1.25 0.921875q-0.765625 0.453125 -1.375 0.671875l0 -1.28125q1.09375 -0.515625 1.921875 -1.25q0.828125 -0.734375 1.171875 -1.4375l0.859375 0l0 10.78125zm3.1823578 -2.828125l1.328125 -0.1875q0.21875 1.125 0.765625 1.625q0.546875 0.484375 1.328125 0.484375q0.9375 0 1.578125 -0.640625q0.640625 -0.640625 0.640625 -1.59375q0 -0.90625 -0.59375 -1.5q-0.59375 -0.59375 -1.515625 -0.59375q-0.375 0 -0.921875 0.15625l0.140625 -1.15625q0.140625 0.015625 0.21875 0.015625q0.84375 0 1.515625 -0.4375q0.671875 -0.453125 0.671875 -1.359375q0 -0.734375 -0.5 -1.203125q-0.484375 -0.484375 -1.265625 -0.484375q-0.765625 0 -1.28125 0.484375q-0.5 0.484375 -0.65625 1.453125l-1.3125 -0.234375q0.234375 -1.328125 1.09375 -2.046875q0.859375 -0.734375 2.125 -0.734375q0.890625 0 1.625 0.375q0.734375 0.375 1.125 1.03125q0.40625 0.65625 0.40625 1.390625q0 0.6875 -0.375 1.265625q-0.375 0.5625 -1.109375 0.90625q0.953125 0.21875 1.46875 0.90625q0.53125 0.6875 0.53125 1.734375q0 1.40625 -1.03125 2.390625q-1.015625 0.96875 -2.578125 0.96875q-1.421875 0 -2.359375 -0.84375q-0.921875 -0.84375 -1.0625 -2.171875zm12.369858 2.828125l0 -2.578125l-4.65625 0l0 -1.203125l4.90625 -6.953125l1.078125 0l0 6.953125l1.453125 0l0 1.203125l-1.453125 0l0 2.578125l-1.328125 0zm0 -3.78125l0 -4.84375l-3.359375 4.84375l3.359375 0zm4.666733 3.78125l0 -1.5l1.5 0l0 1.5l-1.5 0zm10.259476 -1.265625l0 1.265625l-7.09375 0q-0.015625 -0.46875 0.15625 -0.921875q0.265625 -0.71875 0.859375 -1.421875q0.609375 -0.703125 1.734375 -1.625q1.75 -1.4375 2.359375 -2.265625q0.625 -0.84375 0.625 -1.59375q0 -0.78125 -0.5625 -1.3125q-0.5625 -0.546875 -1.46875 -0.546875q-0.953125 0 -1.53125 0.578125q-0.5625 0.5625 -0.5625 1.578125l-1.359375 -0.140625q0.140625 -1.515625 1.046875 -2.3125q0.90625 -0.796875 2.4375 -0.796875q1.546875 0 2.4375 0.859375q0.90625 0.859375 0.90625 2.125q0 0.640625 -0.265625 1.265625q-0.25 0.625 -0.875 1.3125q-0.609375 0.6875 -2.03125 1.890625q-1.1875 0.984375 -1.53125 1.34375q-0.328125 0.359375 -0.546875 0.71875l5.265625 0zm1.2292328 -4.03125q0 -1.90625 0.390625 -3.0625q0.390625 -1.15625 1.15625 -1.78125q0.78125 -0.640625 1.953125 -0.640625q0.859375 0 1.515625 0.359375q0.65625 0.34375 1.078125 1.0q0.421875 0.640625 0.65625 1.59375q0.25 0.9375 0.25 2.53125q0 1.890625 -0.390625 3.0625q-0.390625 1.15625 -1.171875 1.796875q-0.765625 0.625 -1.9375 0.625q-1.546875 0 -2.4375 -1.125q-1.0625 -1.328125 -1.0625 -4.359375zm1.359375 0q0 2.640625 0.609375 3.515625q0.625 0.875 1.53125 0.875q0.90625 0 1.515625 -0.875q0.625 -0.875 0.625 -3.515625q0 -2.65625 -0.625 -3.515625q-0.609375 -0.875 -1.53125 -0.875q-0.90625 0 -1.453125 0.765625q-0.671875 0.984375 -0.671875 3.625zm13.635483 -2.8125l-1.3125 0.109375q-0.171875 -0.78125 -0.5 -1.140625q-0.53125 -0.5625 -1.3125 -0.5625q-0.640625 0 -1.109375 0.359375q-0.625 0.453125 -0.984375 1.328125q-0.359375 0.859375 -0.375 2.484375q0.46875 -0.734375 1.15625 -1.078125q0.703125 -0.359375 1.453125 -0.359375q1.3125 0 2.234375 0.96875q0.9375 0.96875 0.9375 2.515625q0 1.015625 -0.4375 1.890625q-0.4375 0.859375 -1.203125 1.328125q-0.75 0.453125 -1.71875 0.453125q-1.65625 0 -2.703125 -1.203125q-1.03125 -1.21875 -1.03125 -4.015625q0 -3.109375 1.15625 -4.515625q1.0 -1.234375 2.703125 -1.234375q1.265625 0 2.0625 0.71875q0.8125 0.703125 0.984375 1.953125zm-5.390625 4.625q0 0.6875 0.28125 1.3125q0.296875 0.625 0.8125 0.953125q0.53125 0.3125 1.09375 0.3125q0.84375 0 1.4375 -0.671875q0.609375 -0.671875 0.609375 -1.828125q0 -1.109375 -0.59375 -1.75q-0.59375 -0.640625 -1.5 -0.640625q-0.890625 0 -1.515625 0.640625q-0.625 0.640625 -0.625 1.671875zm7.432373 3.484375l0 -1.5l1.5 0l0 1.5l-1.5 0zm10.25946 -1.265625l0 1.265625l-7.09375 0q-0.015625 -0.46875 0.15625 -0.921875q0.265625 -0.71875 0.859375 -1.421875q0.609375 -0.703125 1.734375 -1.625q1.75 -1.4375 2.359375 -2.265625q0.625 -0.84375 0.625 -1.59375q0 -0.78125 -0.5625 -1.3125q-0.5625 -0.546875 -1.46875 -0.546875q-0.953125 0 -1.53125 0.578125q-0.5625 0.5625 -0.5625 1.578125l-1.359375 -0.140625q0.140625 -1.515625 1.046875 -2.3125q0.90625 -0.796875 2.4375 -0.796875q1.546875 0 2.4375 0.859375q0.90625 0.859375 0.90625 2.125q0 0.640625 -0.265625 1.265625q-0.25 0.625 -0.875 1.3125q-0.609375 0.6875 -2.03125 1.890625q-1.1875 0.984375 -1.53125 1.34375q-0.328125 0.359375 -0.546875 0.71875l5.265625 0zm8.151123 0l0 1.265625l-7.09375 0q-0.015625 -0.46875 0.15625 -0.921875q0.265625 -0.71875 0.859375 -1.421875q0.609375 -0.703125 1.734375 -1.625q1.75 -1.4375 2.359375 -2.265625q0.625 -0.84375 0.625 -1.59375q0 -0.78125 -0.5625 -1.3125q-0.5625 -0.546875 -1.46875 -0.546875q-0.953125 0 -1.53125 0.578125q-0.5625 0.5625 -0.5625 1.578125l-1.359375 -0.140625q0.140625 -1.515625 1.046875 -2.3125q0.90625 -0.796875 2.4375 -0.796875q1.546875 0 2.4375 0.859375q0.90625 0.859375 0.90625 2.125q0 0.640625 -0.265625 1.265625q-0.25 0.625 -0.875 1.3125q-0.609375 0.6875 -2.03125 1.890625q-1.1875 0.984375 -1.53125 1.34375q-0.328125 0.359375 -0.546875 0.71875l5.265625 0zm1.2292175 -1.546875l1.375 -0.125q0.15625 1.015625 0.71875 1.53125q0.5625 0.5 1.359375 0.5q0.953125 0 1.609375 -0.71875q0.65625 -0.71875 0.65625 -1.890625q0 -1.140625 -0.640625 -1.78125q-0.625 -0.65625 -1.65625 -0.65625q-0.640625 0 -1.15625 0.296875q-0.5 0.28125 -0.796875 0.734375l-1.234375 -0.15625l1.03125 -5.515625l5.34375 0l0 1.265625l-4.28125 0l-0.578125 2.875q0.96875 -0.671875 2.03125 -0.671875q1.40625 0 2.359375 0.984375q0.96875 0.96875 0.96875 2.5q0 1.453125 -0.84375 2.515625q-1.03125 1.3125 -2.8125 1.3125q-1.46875 0 -2.40625 -0.8125q-0.921875 -0.828125 -1.046875 -2.1875zm8.885498 2.8125l0 -1.5l1.5 0l0 1.5l-1.5 0zm8.306335 0l-1.328125 0l0 -8.40625q-0.46875 0.453125 -1.25 0.921875q-0.765625 0.453125 -1.375 0.671875l0 -1.28125q1.09375 -0.515625 1.921875 -1.25q0.828125 -0.734375 1.171875 -1.4375l0.859375 0l0 10.78125zm10.104248 -1.265625l0 1.265625l-7.09375 0q-0.015625 -0.46875 0.15625 -0.921875q0.265625 -0.71875 0.859375 -1.421875q0.609375 -0.703125 1.734375 -1.625q1.75 -1.4375 2.359375 -2.265625q0.625 -0.84375 0.625 -1.59375q0 -0.78125 -0.5625 -1.3125q-0.5625 -0.546875 -1.46875 -0.546875q-0.953125 0 -1.53125 0.578125q-0.5625 0.5625 -0.5625 1.578125l-1.359375 -0.140625q0.140625 -1.515625 1.046875 -2.3125q0.90625 -0.796875 2.4375 -0.796875q1.546875 0 2.4375 0.859375q0.90625 0.859375 0.90625 2.125q0 0.640625 -0.265625 1.265625q-0.25 0.625 -0.875 1.3125q-0.609375 0.6875 -2.03125 1.890625q-1.1875 0.984375 -1.53125 1.34375q-0.328125 0.359375 -0.546875 0.71875l5.265625 0z" fill-rule="nonzero"></path><path fill="#000000" fill-opacity="0.0" d="m238.9756 119.343506c0 -34.645676 43.05513 -69.291336 86.110245 -69.291336" fill-rule="nonzero"></path><path stroke="#ff0000" stroke-width="2.0" stroke-linejoin="round" stroke-linecap="butt" d="m238.9756 119.343506c0 -17.322838 10.763779 -34.645668 26.90944 -47.637794c8.072845 -6.496063 17.49115 -11.909451 27.582184 -15.698822c5.045532 -1.8946838 10.259247 -3.3833656 15.557037 -4.3983765c1.3244629 -0.25374985 2.6541443 -0.47790146 3.987793 -0.6713867l0.1053772 -0.014667511" fill-rule="evenodd"></path><path fill="#ff0000" stroke="#ff0000" stroke-width="2.0" stroke-linecap="butt" d="m313.35703 54.217224l8.812714 -3.9530106l-9.29187 -2.6365204z" fill-rule="evenodd"></path><path fill="#000000" fill-opacity="0.0" d="m325.09296 23.092752l92.53543 0l0 53.889763l-92.53543 0z" fill-rule="nonzero"></path><path fill="#ff0000" d="m339.6867 55.11763l-1.328125 0l0 -8.40625q-0.46875 0.453125 -1.25 0.921875q-0.765625 0.453125 -1.375 0.671875l0 -1.28125q1.09375 -0.515625 1.921875 -1.25q0.828125 -0.734375 1.171875 -1.4375l0.859375 0l0 10.78125zm3.1823425 -5.296875q0 -1.90625 0.390625 -3.0625q0.390625 -1.15625 1.15625 -1.78125q0.78125 -0.640625 1.953125 -0.640625q0.859375 0 1.515625 0.359375q0.65625 0.34375 1.078125 1.0q0.421875 0.640625 0.65625 1.59375q0.25 0.9375 0.25 2.53125q0 1.890625 -0.390625 3.0625q-0.390625 1.15625 -1.171875 1.796875q-0.765625 0.625 -1.9375 0.625q-1.546875 0 -2.4375 -1.125q-1.0625 -1.328125 -1.0625 -4.359375zm1.359375 0q0 2.640625 0.609375 3.515625q0.625 0.875 1.53125 0.875q0.90625 0 1.515625 -0.875q0.625 -0.875 0.625 -3.515625q0 -2.65625 -0.625 -3.515625q-0.609375 -0.875 -1.53125 -0.875q-0.90625 0 -1.453125 0.765625q-0.671875 0.984375 -0.671875 3.625zm7.526123 5.296875l0 -1.5l1.5 0l0 1.5l-1.5 0zm10.25946 -1.265625l0 1.265625l-7.09375 0q-0.015625 -0.46875 0.15625 -0.921875q0.265625 -0.71875 0.859375 -1.421875q0.609375 -0.703125 1.734375 -1.625q1.75 -1.4375 2.359375 -2.265625q0.625 -0.84375 0.625 -1.59375q0 -0.78125 -0.5625 -1.3125q-0.5625 -0.546875 -1.46875 -0.546875q-0.953125 0 -1.53125 0.578125q-0.5625 0.5625 -0.5625 1.578125l-1.359375 -0.140625q0.140625 -1.515625 1.046875 -2.3125q0.90625 -0.796875 2.4375 -0.796875q1.546875 0 2.4375 0.859375q0.90625 0.859375 0.90625 2.125q0 0.640625 -0.265625 1.265625q-0.25 0.625 -0.875 1.3125q-0.609375 0.6875 -2.03125 1.890625q-1.1875 0.984375 -1.53125 1.34375q-0.328125 0.359375 -0.546875 0.71875l5.265625 0zm1.963623 1.265625l0 -1.5l1.5 0l0 1.5l-1.5 0zm3.3375854 -5.296875q0 -1.90625 0.390625 -3.0625q0.390625 -1.15625 1.15625 -1.78125q0.78125 -0.640625 1.953125 -0.640625q0.859375 0 1.515625 0.359375q0.65625 0.34375 1.078125 1.0q0.421875 0.640625 0.65625 1.59375q0.25 0.9375 0.25 2.53125q0 1.890625 -0.390625 3.0625q-0.390625 1.15625 -1.171875 1.796875q-0.765625 0.625 -1.9375 0.625q-1.546875 0 -2.4375 -1.125q-1.0625 -1.328125 -1.0625 -4.359375zm1.359375 0q0 2.640625 0.609375 3.515625q0.625 0.875 1.53125 0.875q0.90625 0 1.515625 -0.875q0.625 -0.875 0.625 -3.515625q0 -2.65625 -0.625 -3.515625q-0.609375 -0.875 -1.53125 -0.875q-0.90625 0 -1.453125 0.765625q-0.671875 0.984375 -0.671875 3.625zm7.526123 5.296875l0 -1.5l1.5 0l0 1.5l-1.5 0zm10.25946 -1.265625l0 1.265625l-7.09375 0q-0.015625 -0.46875 0.15625 -0.921875q0.265625 -0.71875 0.859375 -1.421875q0.609375 -0.703125 1.734375 -1.625q1.75 -1.4375 2.359375 -2.265625q0.625 -0.84375 0.625 -1.59375q0 -0.78125 -0.5625 -1.3125q-0.5625 -0.546875 -1.46875 -0.546875q-0.953125 0 -1.53125 0.578125q-0.5625 0.5625 -0.5625 1.578125l-1.359375 -0.140625q0.140625 -1.515625 1.046875 -2.3125q0.90625 -0.796875 2.4375 -0.796875q1.546875 0 2.4375 0.859375q0.90625 0.859375 0.90625 2.125q0 0.640625 -0.265625 1.265625q-0.25 0.625 -0.875 1.3125q-0.609375 0.6875 -2.03125 1.890625q-1.1875 0.984375 -1.53125 1.34375q-0.328125 0.359375 -0.546875 0.71875l5.265625 0z" fill-rule="nonzero"></path><path fill="#000000" fill-opacity="0.0" d="m722.6892 23.097803l92.53546 0l0 53.889763l-92.53546 0z" fill-rule="nonzero"></path><path fill="#ff0000" d="m737.28296 55.122684l-1.328125 0l0 -8.40625q-0.46875 0.453125 -1.25 0.921875q-0.765625 0.453125 -1.375 0.671875l0 -1.28125q1.09375 -0.515625 1.921875 -1.25q0.828125 -0.734375 1.171875 -1.4375l0.859375 0l0 10.78125zm3.182373 -5.296875q0 -1.90625 0.390625 -3.0625q0.390625 -1.15625 1.15625 -1.78125q0.78125 -0.640625 1.953125 -0.640625q0.859375 0 1.515625 0.359375q0.65625 0.34375 1.078125 1.0q0.421875 0.640625 0.65625 1.59375q0.25 0.9375 0.25 2.53125q0 1.890625 -0.390625 3.0625q-0.390625 1.15625 -1.171875 1.796875q-0.765625 0.625 -1.9375 0.625q-1.546875 0 -2.4375 -1.125q-1.0625 -1.328125 -1.0625 -4.359375zm1.359375 0q0 2.640625 0.609375 3.515625q0.625 0.875 1.53125 0.875q0.90625 0 1.515625 -0.875q0.625 -0.875 0.625 -3.515625q0 -2.65625 -0.625 -3.515625q-0.609375 -0.875 -1.53125 -0.875q-0.90625 0 -1.453125 0.765625q-0.671875 0.984375 -0.671875 3.625zm7.526123 5.296875l0 -1.5l1.5 0l0 1.5l-1.5 0zm10.25946 -1.265625l0 1.265625l-7.09375 0q-0.015625 -0.46875 0.15625 -0.921875q0.265625 -0.71875 0.859375 -1.421875q0.609375 -0.703125 1.734375 -1.625q1.75 -1.4375 2.359375 -2.265625q0.625 -0.84375 0.625 -1.59375q0 -0.78125 -0.5625 -1.3125q-0.5625 -0.546875 -1.46875 -0.546875q-0.953125 0 -1.53125 0.578125q-0.5625 0.5625 -0.5625 1.578125l-1.359375 -0.140625q0.140625 -1.515625 1.046875 -2.3125q0.90625 -0.796875 2.4375 -0.796875q1.546875 0 2.4375 0.859375q0.90625 0.859375 0.90625 2.125q0 0.640625 -0.265625 1.265625q-0.25 0.625 -0.875 1.3125q-0.609375 0.6875 -2.03125 1.890625q-1.1875 0.984375 -1.53125 1.34375q-0.328125 0.359375 -0.546875 0.71875l5.265625 0zm1.963623 1.265625l0 -1.5l1.5 0l0 1.5l-1.5 0zm3.3375854 -5.296875q0 -1.90625 0.390625 -3.0625q0.390625 -1.15625 1.15625 -1.78125q0.78125 -0.640625 1.953125 -0.640625q0.859375 0 1.515625 0.359375q0.65625 0.34375 1.078125 1.0q0.421875 0.640625 0.65625 1.59375q0.25 0.9375 0.25 2.53125q0 1.890625 -0.390625 3.0625q-0.390625 1.15625 -1.171875 1.796875q-0.765625 0.625 -1.9375 0.625q-1.546875 0 -2.4375 -1.125q-1.0625 -1.328125 -1.0625 -4.359375zm1.359375 0q0 2.640625 0.609375 3.515625q0.625 0.875 1.53125 0.875q0.90625 0 1.515625 -0.875q0.625 -0.875 0.625 -3.515625q0 -2.65625 -0.625 -3.515625q-0.609375 -0.875 -1.53125 -0.875q-0.90625 0 -1.453125 0.765625q-0.671875 0.984375 -0.671875 3.625zm7.526123 5.296875l0 -1.5l1.5 0l0 1.5l-1.5 0zm8.306335 0l-1.328125 0l0 -8.40625q-0.46875 0.453125 -1.25 0.921875q-0.765625 0.453125 -1.375 0.671875l0 -1.28125q1.09375 -0.515625 1.921875 -1.25q0.828125 -0.734375 1.171875 -1.4375l0.859375 0l0 10.78125z" fill-rule="nonzero"></path><path fill="#000000" fill-opacity="0.0" d="m768.957 76.987564c0 25.984253 47.88977 51.968506 95.77948 51.968506" fill-rule="nonzero"></path><path stroke="#ff0000" stroke-width="2.0" stroke-linejoin="round" stroke-linecap="butt" d="m768.9569 76.98757c0 12.992119 11.972473 25.984245 29.931152 35.72834c8.979309 4.8720474 19.4552 8.932083 30.679382 11.774109c5.6119995 1.4210205 11.411255 2.537529 17.303894 3.2987823c1.4731445 0.19032288 2.9521484 0.35842896 4.435608 0.50354004c0.3708496 0.0362854 0.74194336 0.071121216 1.1133423 0.104522705l0.32788086 0.028182983" fill-rule="evenodd"></path><path fill="#ff0000" stroke="#ff0000" stroke-width="2.0" stroke-linecap="butt" d="m852.60205 131.72527l9.213501 -2.89859l-8.921143 -3.7018585z" fill-rule="evenodd"></path><path fill="#000000" fill-opacity="0.0" d="m742.10376 173.23827l129.07086 0l0 53.88977l-129.07086 0z" fill-rule="nonzero"></path><path fill="#000000" d="m774.0414 214.20802l-1.328125 0l0 -8.40625q-0.46875 0.453125 -1.25 0.921875q-0.765625 0.453125 -1.375 0.671875l0 -1.28125q1.09375 -0.515625 1.921875 -1.25q0.828125 -0.734375 1.171875 -1.4375l0.859375 0l0 10.78125zm3.182312 -2.828125l1.328125 -0.1875q0.21875 1.125 0.765625 1.625q0.546875 0.484375 1.328125 0.484375q0.9375 0 1.578125 -0.640625q0.640625 -0.640625 0.640625 -1.59375q0 -0.90625 -0.59375 -1.5q-0.59375 -0.59375 -1.515625 -0.59375q-0.375 0 -0.921875 0.15625l0.140625 -1.15625q0.140625 0.015625 0.21875 0.015625q0.84375 0 1.515625 -0.4375q0.671875 -0.453125 0.671875 -1.359375q0 -0.734375 -0.5 -1.203125q-0.484375 -0.484375 -1.265625 -0.484375q-0.765625 0 -1.28125 0.484375q-0.5 0.484375 -0.65625 1.453125l-1.3125 -0.234375q0.234375 -1.328125 1.09375 -2.046875q0.859375 -0.734375 2.125 -0.734375q0.890625 0 1.625 0.375q0.734375 0.375 1.125 1.03125q0.40625 0.65625 0.40625 1.390625q0 0.6875 -0.375 1.265625q-0.375 0.5625 -1.109375 0.90625q0.953125 0.21875 1.46875 0.90625q0.53125 0.6875 0.53125 1.734375q0 1.40625 -1.03125 2.390625q-1.015625 0.96875 -2.578125 0.96875q-1.421875 0 -2.359375 -0.84375q-0.921875 -0.84375 -1.0625 -2.171875zm8.229248 -6.5l0 -1.265625l6.953125 0l0 1.015625q-1.015625 1.09375 -2.03125 2.90625q-1.0 1.8125 -1.546875 3.71875q-0.40625 1.34375 -0.515625 2.953125l-1.34375 0q0.015625 -1.265625 0.484375 -3.0625q0.484375 -1.796875 1.375 -3.453125q0.890625 -1.671875 1.890625 -2.8125l-5.265625 0zm8.807373 9.328125l0 -1.5l1.5 0l0 1.5l-1.5 0zm3.4157104 -9.328125l0 -1.265625l6.953125 0l0 1.015625q-1.015625 1.09375 -2.03125 2.90625q-1.0 1.8125 -1.546875 3.71875q-0.40625 1.34375 -0.515625 2.953125l-1.34375 0q0.015625 -1.265625 0.484375 -3.0625q0.484375 -1.796875 1.375 -3.453125q0.890625 -1.671875 1.890625 -2.8125l-5.265625 0zm12.291748 9.328125l0 -2.578125l-4.65625 0l0 -1.203125l4.90625 -6.953125l1.078125 0l0 6.953125l1.453125 0l0 1.203125l-1.453125 0l0 2.578125l-1.328125 0zm0 -3.78125l0 -4.84375l-3.359375 4.84375l3.359375 0zm4.666748 3.78125l0 -1.5l1.5 0l0 1.5l-1.5 0zm7.5563354 0l0 -2.578125l-4.65625 0l0 -1.203125l4.90625 -6.953125l1.078125 0l0 6.953125l1.453125 0l0 1.203125l-1.453125 0l0 2.578125l-1.328125 0zm0 -3.78125l0 -4.84375l-3.359375 4.84375l3.359375 0zm3.932373 -1.515625q0 -1.90625 0.390625 -3.0625q0.390625 -1.15625 1.15625 -1.78125q0.78125 -0.640625 1.953125 -0.640625q0.859375 0 1.515625 0.359375q0.65625 0.34375 1.078125 1.0q0.421875 0.640625 0.65625 1.59375q0.25 0.9375 0.25 2.53125q0 1.890625 -0.390625 3.0625q-0.390625 1.15625 -1.171875 1.796875q-0.765625 0.625 -1.9375 0.625q-1.546875 0 -2.4375 -1.125q-1.0625 -1.328125 -1.0625 -4.359375zm1.359375 0q0 2.640625 0.609375 3.515625q0.625 0.875 1.53125 0.875q0.90625 0 1.515625 -0.875q0.625 -0.875 0.625 -3.515625q0 -2.65625 -0.625 -3.515625q-0.609375 -0.875 -1.53125 -0.875q-0.90625 0 -1.453125 0.765625q-0.671875 0.984375 -0.671875 3.625zm7.526062 5.296875l0 -1.5l1.5 0l0 1.5l-1.5 0zm10.2595215 -1.265625l0 1.265625l-7.09375 0q-0.015625 -0.46875 0.15625 -0.921875q0.265625 -0.71875 0.859375 -1.421875q0.609375 -0.703125 1.734375 -1.625q1.75 -1.4375 2.359375 -2.265625q0.625 -0.84375 0.625 -1.59375q0 -0.78125 -0.5625 -1.3125q-0.5625 -0.546875 -1.46875 -0.546875q-0.953125 0 -1.53125 0.578125q-0.5625 0.5625 -0.5625 1.578125l-1.359375 -0.140625q0.140625 -1.515625 1.046875 -2.3125q0.90625 -0.796875 2.4375 -0.796875q1.546875 0 2.4375 0.859375q0.90625 0.859375 0.90625 2.125q0 0.640625 -0.265625 1.265625q-0.25 0.625 -0.875 1.3125q-0.609375 0.6875 -2.03125 1.890625q-1.1875 0.984375 -1.53125 1.34375q-0.328125 0.359375 -0.546875 0.71875l5.265625 0zm1.229187 -1.5625l1.328125 -0.1875q0.21875 1.125 0.765625 1.625q0.546875 0.484375 1.328125 0.484375q0.9375 0 1.578125 -0.640625q0.640625 -0.640625 0.640625 -1.59375q0 -0.90625 -0.59375 -1.5q-0.59375 -0.59375 -1.515625 -0.59375q-0.375 0 -0.921875 0.15625l0.140625 -1.15625q0.140625 0.015625 0.21875 0.015625q0.84375 0 1.515625 -0.4375q0.671875 -0.453125 0.671875 -1.359375q0 -0.734375 -0.5 -1.203125q-0.484375 -0.484375 -1.265625 -0.484375q-0.765625 0 -1.28125 0.484375q-0.5 0.484375 -0.65625 1.453125l-1.3125 -0.234375q0.234375 -1.328125 1.09375 -2.046875q0.859375 -0.734375 2.125 -0.734375q0.890625 0 1.625 0.375q0.734375 0.375 1.125 1.03125q0.40625 0.65625 0.40625 1.390625q0 0.6875 -0.375 1.265625q-0.375 0.5625 -1.109375 0.90625q0.953125 0.21875 1.46875 0.90625q0.53125 0.6875 0.53125 1.734375q0 1.40625 -1.03125 2.390625q-1.015625 0.96875 -2.578125 0.96875q-1.421875 0 -2.359375 -0.84375q-0.921875 -0.84375 -1.0625 -2.171875zm10.182373 -3.0q-0.828125 -0.296875 -1.21875 -0.84375q-0.390625 -0.5625 -0.390625 -1.34375q0 -1.171875 0.828125 -1.96875q0.84375 -0.796875 2.25 -0.796875q1.40625 0 2.265625 0.828125q0.859375 0.8125 0.859375 1.984375q0 0.734375 -0.40625 1.296875q-0.390625 0.546875 -1.1875 0.84375q1.0 0.328125 1.515625 1.046875q0.515625 0.71875 0.515625 1.71875q0 1.375 -0.984375 2.3125q-0.96875 0.9375 -2.5625 0.9375q-1.578125 0 -2.5625 -0.9375q-0.96875 -0.953125 -0.96875 -2.359375q0 -1.046875 0.53125 -1.75q0.53125 -0.703125 1.515625 -0.96875zm-0.265625 -2.234375q0 0.765625 0.484375 1.25q0.5 0.484375 1.28125 0.484375q0.765625 0 1.25 -0.46875q0.484375 -0.484375 0.484375 -1.1875q0 -0.71875 -0.5 -1.21875q-0.5 -0.5 -1.25 -0.5q-0.75 0 -1.25 0.484375q-0.5 0.484375 -0.5 1.15625zm-0.421875 4.96875q0 0.5625 0.265625 1.09375q0.265625 0.515625 0.78125 0.8125q0.53125 0.28125 1.140625 0.28125q0.953125 0 1.5625 -0.59375q0.609375 -0.609375 0.609375 -1.546875q0 -0.953125 -0.640625 -1.578125q-0.625 -0.625 -1.578125 -0.625q-0.921875 0 -1.53125 0.625q-0.609375 0.609375 -0.609375 1.53125z" fill-rule="nonzero"></path><path fill="#000000" fill-opacity="0.0" d="m783.92017 119.343506l80.81885 0l0 53.889755l-80.81885 0z" fill-rule="nonzero"></path><path fill="#000000" d="m833.52625 139.92351l1.359375 0.15625q-0.3125 1.203125 -1.1875 1.859375q-0.875 0.65625 -2.234375 0.65625q-1.703125 0 -2.703125 -1.046875q-1.0 -1.046875 -1.0 -2.953125q0 -1.953125 1.015625 -3.03125q1.015625 -1.09375 2.625 -1.09375q1.5625 0 2.546875 1.0625q0.984375 1.0625 0.984375 2.984375q0 0.125 0 0.359375l-5.8125 0q0.078125 1.28125 0.71875 1.96875q0.65625 0.671875 1.640625 0.671875q0.71875 0 1.234375 -0.375q0.515625 -0.390625 0.8125 -1.21875zm-4.328125 -2.140625l4.34375 0q-0.09375 -0.984375 -0.5 -1.46875q-0.625 -0.765625 -1.625 -0.765625q-0.921875 0 -1.546875 0.609375q-0.609375 0.609375 -0.671875 1.625zm10.041748 3.46875l0.1875 1.15625q-0.5625 0.125 -1.0 0.125q-0.71875 0 -1.125 -0.234375q-0.390625 -0.234375 -0.546875 -0.59375q-0.15625 -0.375 -0.15625 -1.5625l0 -4.46875l-0.96875 0l0 -1.03125l0.96875 0l0 -1.921875l1.3125 -0.796875l0 2.71875l1.328125 0l0 1.03125l-1.328125 0l0 4.546875q0 0.5625 0.0625 0.734375q0.078125 0.15625 0.234375 0.25q0.15625 0.09375 0.4375 0.09375q0.234375 0 0.59375 -0.046875zm1.1813354 1.171875l0 -10.734375l1.328125 0l0 3.84375q0.921875 -1.0625 2.328125 -1.0625q0.859375 0 1.5 0.34375q0.640625 0.34375 0.90625 0.9375q0.28125 0.59375 0.28125 1.75l0 4.921875l-1.328125 0l0 -4.921875q0 -1.0 -0.421875 -1.4375q-0.421875 -0.453125 -1.21875 -0.453125q-0.578125 0 -1.09375 0.296875q-0.515625 0.296875 -0.734375 0.828125q-0.21875 0.515625 -0.21875 1.4375l0 4.25l-1.328125 0zm7.791748 -5.296875q0 -1.90625 0.390625 -3.0625q0.390625 -1.15625 1.15625 -1.78125q0.78125 -0.640625 1.953125 -0.640625q0.859375 0 1.515625 0.359375q0.65625 0.34375 1.078125 1.0q0.421875 0.640625 0.65625 1.59375q0.25 0.9375 0.25 2.53125q0 1.890625 -0.390625 3.0625q-0.390625 1.15625 -1.171875 1.796875q-0.765625 0.625 -1.9375 0.625q-1.546875 0 -2.4375 -1.125q-1.0625 -1.328125 -1.0625 -4.359375zm1.359375 0q0 2.640625 0.609375 3.515625q0.625 0.875 1.53125 0.875q0.90625 0 1.515625 -0.875q0.625 -0.875 0.625 -3.515625q0 -2.65625 -0.625 -3.515625q-0.609375 -0.875 -1.53125 -0.875q-0.90625 0 -1.453125 0.765625q-0.671875 0.984375 -0.671875 3.625z" fill-rule="nonzero"></path><path fill="#000000" fill-opacity="0.0" d="m357.86768 210.76454l129.07086 0l0 53.889755l-129.07086 0z" fill-rule="nonzero"></path><path fill="#000000" d="m381.13336 251.7343l-1.328125 0l0 -8.40625q-0.46875 0.453125 -1.25 0.921875q-0.765625 0.453125 -1.375 0.671875l0 -1.28125q1.09375 -0.515625 1.921875 -1.25q0.828125 -0.734375 1.171875 -1.4375l0.859375 0l0 10.78125zm3.1823425 -2.828125l1.328125 -0.1875q0.21875 1.125 0.765625 1.625q0.546875 0.484375 1.328125 0.484375q0.9375 0 1.578125 -0.640625q0.640625 -0.640625 0.640625 -1.59375q0 -0.90625 -0.59375 -1.5q-0.59375 -0.59375 -1.515625 -0.59375q-0.375 0 -0.921875 0.15625l0.140625 -1.15625q0.140625 0.015625 0.21875 0.015625q0.84375 0 1.515625 -0.4375q0.671875 -0.453125 0.671875 -1.359375q0 -0.734375 -0.5 -1.203125q-0.484375 -0.484375 -1.265625 -0.484375q-0.765625 0 -1.28125 0.484375q-0.5 0.484375 -0.65625 1.453125l-1.3125 -0.234375q0.234375 -1.328125 1.09375 -2.046875q0.859375 -0.734375 2.125 -0.734375q0.890625 0 1.625 0.375q0.734375 0.375 1.125 1.03125q0.40625 0.65625 0.40625 1.390625q0 0.6875 -0.375 1.265625q-0.375 0.5625 -1.109375 0.90625q0.953125 0.21875 1.46875 0.90625q0.53125 0.6875 0.53125 1.734375q0 1.40625 -1.03125 2.390625q-1.015625 0.96875 -2.578125 0.96875q-1.421875 0 -2.359375 -0.84375q-0.921875 -0.84375 -1.0625 -2.171875zm12.369873 2.828125l0 -2.578125l-4.65625 0l0 -1.203125l4.90625 -6.953125l1.078125 0l0 6.953125l1.453125 0l0 1.203125l-1.453125 0l0 2.578125l-1.328125 0zm0 -3.78125l0 -4.84375l-3.359375 4.84375l3.359375 0zm4.6667175 3.78125l0 -1.5l1.5 0l0 1.5l-1.5 0zm10.259491 -1.265625l0 1.265625l-7.09375 0q-0.015625 -0.46875 0.15625 -0.921875q0.265625 -0.71875 0.859375 -1.421875q0.609375 -0.703125 1.734375 -1.625q1.75 -1.4375 2.359375 -2.265625q0.625 -0.84375 0.625 -1.59375q0 -0.78125 -0.5625 -1.3125q-0.5625 -0.546875 -1.46875 -0.546875q-0.953125 0 -1.53125 0.578125q-0.5625 0.5625 -0.5625 1.578125l-1.359375 -0.140625q0.140625 -1.515625 1.046875 -2.3125q0.90625 -0.796875 2.4375 -0.796875q1.546875 0 2.4375 0.859375q0.90625 0.859375 0.90625 2.125q0 0.640625 -0.265625 1.265625q-0.25 0.625 -0.875 1.3125q-0.609375 0.6875 -2.03125 1.890625q-1.1875 0.984375 -1.53125 1.34375q-0.328125 0.359375 -0.546875 0.71875l5.265625 0zm1.2292175 -4.03125q0 -1.90625 0.390625 -3.0625q0.390625 -1.15625 1.15625 -1.78125q0.78125 -0.640625 1.953125 -0.640625q0.859375 0 1.515625 0.359375q0.65625 0.34375 1.078125 1.0q0.421875 0.640625 0.65625 1.59375q0.25 0.9375 0.25 2.53125q0 1.890625 -0.390625 3.0625q-0.390625 1.15625 -1.171875 1.796875q-0.765625 0.625 -1.9375 0.625q-1.546875 0 -2.4375 -1.125q-1.0625 -1.328125 -1.0625 -4.359375zm1.359375 0q0 2.640625 0.609375 3.515625q0.625 0.875 1.53125 0.875q0.90625 0 1.515625 -0.875q0.625 -0.875 0.625 -3.515625q0 -2.65625 -0.625 -3.515625q-0.609375 -0.875 -1.53125 -0.875q-0.90625 0 -1.453125 0.765625q-0.671875 0.984375 -0.671875 3.625zm13.635498 -2.8125l-1.3125 0.109375q-0.171875 -0.78125 -0.5 -1.140625q-0.53125 -0.5625 -1.3125 -0.5625q-0.640625 0 -1.109375 0.359375q-0.625 0.453125 -0.984375 1.328125q-0.359375 0.859375 -0.375 2.484375q0.46875 -0.734375 1.15625 -1.078125q0.703125 -0.359375 1.453125 -0.359375q1.3125 0 2.234375 0.96875q0.9375 0.96875 0.9375 2.515625q0 1.015625 -0.4375 1.890625q-0.4375 0.859375 -1.203125 1.328125q-0.75 0.453125 -1.71875 0.453125q-1.65625 0 -2.703125 -1.203125q-1.03125 -1.21875 -1.03125 -4.015625q0 -3.109375 1.15625 -4.515625q1.0 -1.234375 2.703125 -1.234375q1.265625 0 2.0625 0.71875q0.8125 0.703125 0.984375 1.953125zm-5.390625 4.625q0 0.6875 0.28125 1.3125q0.296875 0.625 0.8125 0.953125q0.53125 0.3125 1.09375 0.3125q0.84375 0 1.4375 -0.671875q0.609375 -0.671875 0.609375 -1.828125q0 -1.109375 -0.59375 -1.75q-0.59375 -0.640625 -1.5 -0.640625q-0.890625 0 -1.515625 0.640625q-0.625 0.640625 -0.625 1.671875zm7.4323425 3.484375l0 -1.5l1.5 0l0 1.5l-1.5 0zm10.259491 -1.265625l0 1.265625l-7.09375 0q-0.015625 -0.46875 0.15625 -0.921875q0.265625 -0.71875 0.859375 -1.421875q0.609375 -0.703125 1.734375 -1.625q1.75 -1.4375 2.359375 -2.265625q0.625 -0.84375 0.625 -1.59375q0 -0.78125 -0.5625 -1.3125q-0.5625 -0.546875 -1.46875 -0.546875q-0.953125 0 -1.53125 0.578125q-0.5625 0.5625 -0.5625 1.578125l-1.359375 -0.140625q0.140625 -1.515625 1.046875 -2.3125q0.90625 -0.796875 2.4375 -0.796875q1.546875 0 2.4375 0.859375q0.90625 0.859375 0.90625 2.125q0 0.640625 -0.265625 1.265625q-0.25 0.625 -0.875 1.3125q-0.609375 0.6875 -2.03125 1.890625q-1.1875 0.984375 -1.53125 1.34375q-0.328125 0.359375 -0.546875 0.71875l5.265625 0zm8.151093 0l0 1.265625l-7.09375 0q-0.015625 -0.46875 0.15625 -0.921875q0.265625 -0.71875 0.859375 -1.421875q0.609375 -0.703125 1.734375 -1.625q1.75 -1.4375 2.359375 -2.265625q0.625 -0.84375 0.625 -1.59375q0 -0.78125 -0.5625 -1.3125q-0.5625 -0.546875 -1.46875 -0.546875q-0.953125 0 -1.53125 0.578125q-0.5625 0.5625 -0.5625 1.578125l-1.359375 -0.140625q0.140625 -1.515625 1.046875 -2.3125q0.90625 -0.796875 2.4375 -0.796875q1.546875 0 2.4375 0.859375q0.90625 0.859375 0.90625 2.125q0 0.640625 -0.265625 1.265625q-0.25 0.625 -0.875 1.3125q-0.609375 0.6875 -2.03125 1.890625q-1.1875 0.984375 -1.53125 1.34375q-0.328125 0.359375 -0.546875 0.71875l5.265625 0zm1.229248 -1.546875l1.375 -0.125q0.15625 1.015625 0.71875 1.53125q0.5625 0.5 1.359375 0.5q0.953125 0 1.609375 -0.71875q0.65625 -0.71875 0.65625 -1.890625q0 -1.140625 -0.640625 -1.78125q-0.625 -0.65625 -1.65625 -0.65625q-0.640625 0 -1.15625 0.296875q-0.5 0.28125 -0.796875 0.734375l-1.234375 -0.15625l1.03125 -5.515625l5.34375 0l0 1.265625l-4.28125 0l-0.578125 2.875q0.96875 -0.671875 2.03125 -0.671875q1.40625 0 2.359375 0.984375q0.96875 0.96875 0.96875 2.5q0 1.453125 -0.84375 2.515625q-1.03125 1.3125 -2.8125 1.3125q-1.46875 0 -2.40625 -0.8125q-0.921875 -0.828125 -1.046875 -2.1875zm8.885468 2.8125l0 -1.5l1.5 0l0 1.5l-1.5 0zm8.306366 0l-1.328125 0l0 -8.40625q-0.46875 0.453125 -1.25 0.921875q-0.765625 0.453125 -1.375 0.671875l0 -1.28125q1.09375 -0.515625 1.921875 -1.25q0.828125 -0.734375 1.171875 -1.4375l0.859375 0l0 10.78125z" fill-rule="nonzero"></path></g></svg>

